<?xml version="1.0" encoding="UTF-8"?>
<svg id="Calque_2" data-name="Calque 2" xmlns="http://www.w3.org/2000/svg" viewBox="0 0 73.13 61.9">
  <defs>
    <style>
      .cls-1 {
        fill: #00a092;
      }

      .cls-2 {
        fill: #d3d3d3;
      }

      .cls-3 {
        fill: #d2d200;
      }

      .cls-4 {
        fill: #d282be;
      }
    </style>
  </defs>
  <g id="Calque_1-2" data-name="Calque 1">
    <g>
      <path class="cls-2" d="M11.25,8.46c0-1.57,1.24-2.81,2.81-2.81s2.81,1.24,2.81,2.81-1.24,2.81-2.81,2.81-2.81-1.24-2.81-2.81ZM11.25,14.09c0-1.58,1.24-2.81,2.81-2.81s2.81,1.24,2.81,2.81-1.24,2.81-2.81,2.81-2.81-1.24-2.81-2.81ZM16.88,8.46c0-1.57,1.24-2.81,2.81-2.81s2.81,1.24,2.81,2.81-1.24,2.81-2.81,2.81-2.81-1.24-2.81-2.81ZM16.88,14.09c0-1.58,1.24-2.81,2.81-2.81s2.81,1.24,2.81,2.81-1.24,2.81-2.81,2.81-2.81-1.24-2.81-2.81ZM22.5,8.46c0-1.57,1.24-2.81,2.81-2.81s2.81,1.24,2.81,2.81-1.24,2.81-2.81,2.81-2.81-1.24-2.81-2.81ZM22.5,14.09c0-1.58,1.24-2.81,2.81-2.81s2.81,1.24,2.81,2.81-1.24,2.81-2.81,2.81-2.81-1.24-2.81-2.81ZM28.13,8.46c0-1.57,1.24-2.81,2.81-2.81s2.81,1.24,2.81,2.81-1.24,2.81-2.81,2.81-2.81-1.24-2.81-2.81ZM28.13,14.09c0-1.58,1.24-2.81,2.81-2.81s2.81,1.24,2.81,2.81-1.24,2.81-2.81,2.81-2.81-1.24-2.81-2.81ZM28.13,19.71c0-1.57,1.24-2.81,2.81-2.81s2.81,1.24,2.81,2.81-1.24,2.81-2.81,2.81-2.81-1.24-2.81-2.81ZM28.13,25.34c0-1.58,1.24-2.81,2.81-2.81s2.81,1.24,2.81,2.81-1.24,2.81-2.81,2.81-2.81-1.24-2.81-2.81ZM28.13,30.96c0-1.57,1.24-2.81,2.81-2.81s2.81,1.24,2.81,2.81-1.24,2.81-2.81,2.81-2.81-1.24-2.81-2.81ZM28.13,36.59c0-1.57,1.24-2.81,2.81-2.81s2.81,1.24,2.81,2.81-1.24,2.81-2.81,2.81-2.81-1.24-2.81-2.81ZM28.13,42.22c0-1.58,1.24-2.81,2.81-2.81s2.81,1.24,2.81,2.81-1.24,2.81-2.81,2.81-2.81-1.24-2.81-2.81ZM28.13,47.84c0-1.57,1.24-2.81,2.81-2.81s2.81,1.24,2.81,2.81-1.24,2.81-2.81,2.81-2.81-1.24-2.81-2.81ZM28.13,53.47c0-1.58,1.24-2.81,2.81-2.81s2.81,1.24,2.81,2.81-1.24,2.81-2.81,2.81-2.81-1.24-2.81-2.81ZM28.13,59.09c0-1.57,1.24-2.81,2.81-2.81s2.81,1.24,2.81,2.81-1.24,2.81-2.81,2.81-2.81-1.24-2.81-2.81ZM33.75,8.46c0-1.57,1.24-2.81,2.81-2.81s2.81,1.24,2.81,2.81-1.24,2.81-2.81,2.81-2.81-1.24-2.81-2.81ZM33.75,14.09c0-1.58,1.24-2.81,2.81-2.81s2.81,1.24,2.81,2.81-1.24,2.81-2.81,2.81-2.81-1.24-2.81-2.81ZM33.75,19.71c0-1.57,1.24-2.81,2.81-2.81s2.81,1.24,2.81,2.81-1.24,2.81-2.81,2.81-2.81-1.24-2.81-2.81ZM33.75,25.34c0-1.58,1.24-2.81,2.81-2.81s2.81,1.24,2.81,2.81-1.24,2.81-2.81,2.81-2.81-1.24-2.81-2.81ZM33.75,30.96c0-1.57,1.24-2.81,2.81-2.81s2.81,1.24,2.81,2.81-1.24,2.81-2.81,2.81-2.81-1.24-2.81-2.81ZM33.75,36.59c0-1.57,1.24-2.81,2.81-2.81s2.81,1.24,2.81,2.81-1.24,2.81-2.81,2.81-2.81-1.24-2.81-2.81ZM33.75,42.22c0-1.58,1.24-2.81,2.81-2.81s2.81,1.24,2.81,2.81-1.24,2.81-2.81,2.81-2.81-1.24-2.81-2.81ZM33.75,47.84c0-1.57,1.24-2.81,2.81-2.81s2.81,1.24,2.81,2.81-1.24,2.81-2.81,2.81-2.81-1.24-2.81-2.81ZM33.75,53.47c0-1.58,1.24-2.81,2.81-2.81s2.81,1.24,2.81,2.81-1.24,2.81-2.81,2.81-2.81-1.24-2.81-2.81ZM33.75,59.09c0-1.57,1.24-2.81,2.81-2.81s2.81,1.24,2.81,2.81-1.24,2.81-2.81,2.81-2.81-1.24-2.81-2.81ZM39.38,53.46c0-1.58,1.24-2.81,2.81-2.81s2.81,1.24,2.81,2.81-1.24,2.81-2.81,2.81-2.81-1.24-2.81-2.81ZM39.38,59.09c0-1.57,1.24-2.81,2.81-2.81s2.81,1.24,2.81,2.81-1.24,2.81-2.81,2.81-2.81-1.24-2.81-2.81ZM45,53.46c0-1.58,1.24-2.81,2.81-2.81s2.81,1.24,2.81,2.81-1.24,2.81-2.81,2.81-2.81-1.24-2.81-2.81ZM45,59.09c0-1.57,1.24-2.81,2.81-2.81s2.81,1.24,2.81,2.81-1.24,2.81-2.81,2.81-2.81-1.24-2.81-2.81ZM5.63,8.46c0-1.58,1.24-2.81,2.81-2.81s2.81,1.24,2.81,2.81-1.24,2.81-2.81,2.81-2.81-1.24-2.81-2.81ZM11.25,2.84C11.25,1.26,12.49.02,14.07.02s2.81,1.24,2.81,2.81-1.24,2.81-2.81,2.81-2.81-1.24-2.81-2.81ZM16.88,2.84C16.88,1.26,18.12.02,19.69.02s2.81,1.24,2.81,2.81-1.24,2.81-2.81,2.81-2.81-1.24-2.81-2.81ZM22.5,2.84C22.5,1.26,23.74.02,25.32.02s2.81,1.24,2.81,2.81-1.24,2.81-2.81,2.81-2.81-1.24-2.81-2.81ZM28.13,2.84C28.13,1.26,29.37.02,30.94.02s2.81,1.24,2.81,2.81-1.24,2.81-2.81,2.81-2.81-1.24-2.81-2.81ZM33.75,2.84c0-1.57,1.24-2.81,2.81-2.81s2.81,1.24,2.81,2.81-1.24,2.81-2.81,2.81-2.81-1.24-2.81-2.81ZM5.63,2.84C5.63,1.26,6.86.02,8.44.02s2.81,1.24,2.81,2.81-1.24,2.81-2.81,2.81-2.81-1.24-2.81-2.81ZM5.63,14.09c0-1.57,1.24-2.81,2.81-2.81s2.81,1.24,2.81,2.81-1.24,2.81-2.81,2.81-2.81-1.24-2.81-2.81ZM50.63,53.46c0-1.58,1.24-2.81,2.81-2.81s2.81,1.24,2.81,2.81-1.24,2.81-2.81,2.81-2.81-1.24-2.81-2.81ZM50.63,59.09c0-1.57,1.24-2.81,2.81-2.81s2.81,1.24,2.81,2.81-1.24,2.81-2.81,2.81-2.81-1.24-2.81-2.81ZM56.25,53.46c0-1.58,1.24-2.81,2.81-2.81s2.81,1.24,2.81,2.81-1.24,2.81-2.81,2.81-2.81-1.24-2.81-2.81ZM56.25,59.09c0-1.57,1.24-2.81,2.81-2.81s2.81,1.24,2.81,2.81-1.24,2.81-2.81,2.81-2.81-1.24-2.81-2.81ZM39.38,2.84c0-1.57,1.24-2.81,2.81-2.81s2.81,1.24,2.81,2.81-1.24,2.81-2.81,2.81-2.81-1.24-2.81-2.81ZM39.38,8.46c0-1.58,1.24-2.81,2.81-2.81s2.81,1.24,2.81,2.81-1.24,2.81-2.81,2.81-2.81-1.24-2.81-2.81ZM39.38,14.09c0-1.57,1.24-2.81,2.81-2.81s2.81,1.24,2.81,2.81-1.24,2.81-2.81,2.81-2.81-1.24-2.81-2.81ZM39.38,19.71c0-1.58,1.24-2.81,2.81-2.81s2.81,1.24,2.81,2.81-1.24,2.81-2.81,2.81-2.81-1.24-2.81-2.81ZM39.38,25.34c0-1.57,1.24-2.81,2.81-2.81s2.81,1.24,2.81,2.81-1.24,2.81-2.81,2.81-2.81-1.24-2.81-2.81ZM39.38,30.96c0-1.57,1.24-2.81,2.81-2.81s2.81,1.24,2.81,2.81-1.24,2.81-2.81,2.81-2.81-1.24-2.81-2.81ZM39.38,36.59c0-1.58,1.24-2.81,2.81-2.81s2.81,1.24,2.81,2.81-1.24,2.81-2.81,2.81-2.81-1.24-2.81-2.81ZM39.38,42.22c0-1.57,1.24-2.81,2.81-2.81s2.81,1.24,2.81,2.81-1.24,2.81-2.81,2.81-2.81-1.24-2.81-2.81ZM39.38,47.84c0-1.58,1.24-2.81,2.81-2.81s2.81,1.24,2.81,2.81-1.24,2.81-2.81,2.81-2.81-1.24-2.81-2.81ZM45.01,47.84c0-1.58,1.24-2.81,2.81-2.81s2.81,1.24,2.81,2.81-1.24,2.81-2.81,2.81-2.81-1.24-2.81-2.81ZM50.63,47.84c0-1.58,1.24-2.81,2.81-2.81s2.81,1.24,2.81,2.81-1.24,2.81-2.81,2.81-2.81-1.24-2.81-2.81ZM56.26,47.84c0-1.58,1.24-2.81,2.81-2.81s2.81,1.24,2.81,2.81-1.24,2.81-2.81,2.81-2.81-1.24-2.81-2.81ZM61.88,47.84c0-1.58,1.24-2.81,2.81-2.81s2.81,1.24,2.81,2.81-1.24,2.81-2.81,2.81-2.81-1.24-2.81-2.81ZM61.88,53.46c0-1.58,1.24-2.81,2.81-2.81s2.81,1.24,2.81,2.81-1.24,2.81-2.81,2.81-2.81-1.24-2.81-2.81ZM61.88,59.09c0-1.57,1.24-2.81,2.81-2.81s2.81,1.24,2.81,2.81-1.24,2.81-2.81,2.81-2.81-1.24-2.81-2.81Z"/>
      <path class="cls-4" d="M61.88,47.84c0-1.58,1.24-2.81,2.81-2.81s2.81,1.24,2.81,2.81-1.24,2.81-2.81,2.81-2.81-1.24-2.81-2.81Z"/>
      <path class="cls-1" d="M61.88,53.46c0-1.58,1.24-2.81,2.81-2.81s2.81,1.24,2.81,2.81-1.24,2.81-2.81,2.81-2.81-1.24-2.81-2.81Z"/>
      <path class="cls-3" d="M61.88,59.09c0-1.58,1.24-2.81,2.81-2.81s2.81,1.24,2.81,2.81-1.24,2.81-2.81,2.81-2.81-1.24-2.81-2.81Z"/>
      <path class="cls-4" d="M56.25,47.84c0-1.58,1.24-2.81,2.81-2.81s2.81,1.24,2.81,2.81-1.24,2.81-2.81,2.81-2.81-1.24-2.81-2.81Z"/>
      <path class="cls-1" d="M56.25,53.46c0-1.58,1.24-2.81,2.81-2.81s2.81,1.24,2.81,2.81-1.24,2.81-2.81,2.81-2.81-1.24-2.81-2.81Z"/>
      <path class="cls-3" d="M56.25,59.09c0-1.58,1.24-2.81,2.81-2.81s2.81,1.24,2.81,2.81-1.24,2.81-2.81,2.81-2.81-1.24-2.81-2.81Z"/>
      <path class="cls-4" d="M50.63,47.84c0-1.58,1.24-2.81,2.81-2.81s2.81,1.24,2.81,2.81-1.24,2.81-2.81,2.81-2.81-1.24-2.81-2.81Z"/>
      <path class="cls-1" d="M50.63,53.46c0-1.58,1.24-2.81,2.81-2.81s2.81,1.24,2.81,2.81-1.24,2.81-2.81,2.81-2.81-1.24-2.81-2.81Z"/>
      <path class="cls-3" d="M50.63,59.09c0-1.58,1.24-2.81,2.81-2.81s2.81,1.24,2.81,2.81-1.24,2.81-2.81,2.81-2.81-1.24-2.81-2.81Z"/>
      <path class="cls-4" d="M45,47.84c0-1.58,1.24-2.81,2.81-2.81s2.81,1.24,2.81,2.81-1.24,2.81-2.81,2.81-2.81-1.24-2.81-2.81Z"/>
      <path class="cls-1" d="M45,53.46c0-1.58,1.24-2.81,2.81-2.81s2.81,1.24,2.81,2.81-1.24,2.81-2.81,2.81-2.81-1.24-2.81-2.81Z"/>
      <path class="cls-3" d="M45,59.09c0-1.58,1.24-2.81,2.81-2.81s2.81,1.24,2.81,2.81-1.24,2.81-2.81,2.81-2.81-1.24-2.81-2.81Z"/>
      <path class="cls-4" d="M39.38,47.84c0-1.58,1.24-2.81,2.81-2.81s2.81,1.24,2.81,2.81-1.24,2.81-2.81,2.81-2.81-1.24-2.81-2.81Z"/>
      <path class="cls-1" d="M39.38,53.46c0-1.58,1.24-2.81,2.81-2.81s2.81,1.24,2.81,2.81-1.24,2.81-2.81,2.81-2.81-1.24-2.81-2.81Z"/>
      <path class="cls-3" d="M39.38,59.09c0-1.58,1.24-2.81,2.81-2.81s2.81,1.24,2.81,2.81-1.24,2.81-2.81,2.81-2.81-1.24-2.81-2.81Z"/>
      <path class="cls-1" d="M33.75,47.84c0-1.58,1.24-2.81,2.81-2.81s2.81,1.24,2.81,2.81-1.24,2.81-2.81,2.81-2.81-1.24-2.81-2.81Z"/>
      <path class="cls-1" d="M33.75,53.46c0-1.58,1.24-2.81,2.81-2.81s2.81,1.24,2.81,2.81-1.24,2.81-2.81,2.81-2.81-1.24-2.81-2.81Z"/>
      <path class="cls-3" d="M33.75,59.09c0-1.58,1.24-2.81,2.81-2.81s2.81,1.24,2.81,2.81-1.24,2.81-2.81,2.81-2.81-1.24-2.81-2.81Z"/>
      <path class="cls-3" d="M28.13,59.09c0-1.58,1.24-2.81,2.81-2.81s2.81,1.24,2.81,2.81-1.24,2.81-2.81,2.81-2.81-1.24-2.81-2.81Z"/>
      <path class="cls-3" d="M28.13,53.47c0-1.58,1.24-2.81,2.81-2.81s2.81,1.24,2.81,2.81-1.24,2.81-2.81,2.81-2.81-1.24-2.81-2.81Z"/>
      <path class="cls-3" d="M28.13,47.84c0-1.58,1.24-2.81,2.81-2.81s2.81,1.24,2.81,2.81-1.24,2.81-2.81,2.81-2.81-1.24-2.81-2.81Z"/>
      <path class="cls-4" d="M39.38,42.22c0-1.58,1.24-2.81,2.81-2.81s2.81,1.24,2.81,2.81-1.24,2.81-2.81,2.81-2.81-1.24-2.81-2.81Z"/>
      <path class="cls-1" d="M33.75,42.21c0-1.58,1.24-2.81,2.81-2.81s2.81,1.24,2.81,2.81-1.24,2.81-2.81,2.81-2.81-1.24-2.81-2.81Z"/>
      <path class="cls-3" d="M28.13,42.22c0-1.58,1.24-2.81,2.81-2.81s2.81,1.24,2.81,2.81-1.24,2.81-2.81,2.81-2.81-1.24-2.81-2.81Z"/>
      <path class="cls-4" d="M39.38,36.59c0-1.58,1.24-2.81,2.81-2.81s2.81,1.24,2.81,2.81-1.24,2.81-2.81,2.81-2.81-1.24-2.81-2.81Z"/>
      <path class="cls-1" d="M33.75,36.58c0-1.58,1.24-2.81,2.81-2.81s2.81,1.24,2.81,2.81-1.24,2.81-2.81,2.81-2.81-1.24-2.81-2.81Z"/>
      <path class="cls-3" d="M28.13,36.59c0-1.58,1.24-2.81,2.81-2.81s2.81,1.24,2.81,2.81-1.24,2.81-2.81,2.81-2.81-1.24-2.81-2.81Z"/>
      <path class="cls-4" d="M39.38,30.96c0-1.58,1.24-2.81,2.81-2.81s2.81,1.24,2.81,2.81-1.24,2.81-2.81,2.81-2.81-1.24-2.81-2.81Z"/>
      <path class="cls-1" d="M33.75,30.96c0-1.58,1.24-2.81,2.81-2.81s2.81,1.24,2.81,2.81-1.24,2.81-2.81,2.81-2.81-1.24-2.81-2.81Z"/>
      <path class="cls-3" d="M28.13,30.96c0-1.58,1.24-2.81,2.81-2.81s2.81,1.24,2.81,2.81-1.24,2.81-2.81,2.81-2.81-1.24-2.81-2.81Z"/>
      <path class="cls-4" d="M39.38,25.33c0-1.58,1.24-2.81,2.81-2.81s2.81,1.24,2.81,2.81-1.24,2.81-2.81,2.81-2.81-1.24-2.81-2.81Z"/>
      <path class="cls-1" d="M33.75,25.33c0-1.58,1.24-2.81,2.81-2.81s2.81,1.24,2.81,2.81-1.24,2.81-2.81,2.81-2.81-1.24-2.81-2.81Z"/>
      <path class="cls-3" d="M28.13,25.33c0-1.58,1.24-2.81,2.81-2.81s2.81,1.24,2.81,2.81-1.24,2.81-2.81,2.81-2.81-1.24-2.81-2.81Z"/>
      <path class="cls-4" d="M39.38,19.71c0-1.58,1.24-2.81,2.81-2.81s2.81,1.24,2.81,2.81-1.24,2.81-2.81,2.81-2.81-1.24-2.81-2.81Z"/>
      <path class="cls-1" d="M33.75,19.71c0-1.58,1.24-2.81,2.81-2.81s2.81,1.24,2.81,2.81-1.24,2.81-2.81,2.81-2.81-1.24-2.81-2.81Z"/>
      <path class="cls-3" d="M28.13,19.71c0-1.58,1.24-2.81,2.81-2.81s2.81,1.24,2.81,2.81-1.24,2.81-2.81,2.81-2.81-1.24-2.81-2.81Z"/>
      <path class="cls-4" d="M39.38,14.08c0-1.58,1.24-2.81,2.81-2.81s2.81,1.24,2.81,2.81-1.24,2.81-2.81,2.81-2.81-1.24-2.81-2.81Z"/>
      <path class="cls-1" d="M33.75,14.08c0-1.58,1.24-2.81,2.81-2.81s2.81,1.24,2.81,2.81-1.24,2.81-2.81,2.81-2.81-1.24-2.81-2.81Z"/>
      <path class="cls-3" d="M28.13,14.08c0-1.58,1.24-2.81,2.81-2.81s2.81,1.24,2.81,2.81-1.24,2.81-2.81,2.81-2.81-1.24-2.81-2.81Z"/>
      <path class="cls-4" d="M39.38,8.45c0-1.58,1.24-2.81,2.81-2.81s2.81,1.24,2.81,2.81-1.24,2.81-2.81,2.81-2.81-1.24-2.81-2.81Z"/>
      <path class="cls-1" d="M33.75,8.45c0-1.58,1.24-2.81,2.81-2.81s2.81,1.24,2.81,2.81-1.24,2.81-2.81,2.81-2.81-1.24-2.81-2.81Z"/>
      <path class="cls-4" d="M39.38,2.84c0-1.58,1.24-2.81,2.81-2.81s2.81,1.24,2.81,2.81-1.24,2.81-2.81,2.81-2.81-1.24-2.81-2.81Z"/>
      <path class="cls-1" d="M28.13,8.44c0-1.58,1.24-2.81,2.81-2.81s2.81,1.24,2.81,2.81-1.24,2.81-2.81,2.81-2.81-1.24-2.81-2.81Z"/>
      <path class="cls-3" d="M22.5,14.09c0-1.58,1.24-2.81,2.81-2.81s2.81,1.24,2.81,2.81-1.24,2.81-2.81,2.81-2.81-1.24-2.81-2.81Z"/>
      <path class="cls-4" d="M33.75,2.84c0-1.58,1.24-2.81,2.81-2.81s2.81,1.24,2.81,2.81-1.24,2.81-2.81,2.81-2.81-1.24-2.81-2.81Z"/>
      <path class="cls-4" d="M28.13,2.84C28.13,1.26,29.37.02,30.94.02s2.81,1.24,2.81,2.81-1.24,2.81-2.81,2.81-2.81-1.24-2.81-2.81Z"/>
      <path class="cls-1" d="M22.5,8.46c0-1.58,1.24-2.81,2.81-2.81s2.81,1.24,2.81,2.81-1.24,2.81-2.81,2.81-2.81-1.24-2.81-2.81Z"/>
      <path class="cls-4" d="M22.5,2.83C22.5,1.25,23.74.02,25.32.02s2.81,1.24,2.81,2.81-1.24,2.81-2.81,2.81-2.81-1.24-2.81-2.81Z"/>
      <path class="cls-3" d="M16.88,14.09c0-1.58,1.24-2.81,2.81-2.81s2.81,1.24,2.81,2.81-1.24,2.81-2.81,2.81-2.81-1.24-2.81-2.81Z"/>
      <path class="cls-1" d="M16.88,8.47c0-1.58,1.24-2.81,2.81-2.81s2.81,1.24,2.81,2.81-1.24,2.81-2.81,2.81-2.81-1.24-2.81-2.81Z"/>
      <path class="cls-4" d="M16.88,2.83C16.88,1.26,18.12.02,19.69.02s2.81,1.24,2.81,2.81-1.24,2.81-2.81,2.81-2.81-1.24-2.81-2.81Z"/>
      <path class="cls-3" d="M11.25,14.1c0-1.58,1.24-2.81,2.81-2.81s2.81,1.24,2.81,2.81-1.24,2.81-2.81,2.81-2.81-1.24-2.81-2.81Z"/>
      <path class="cls-1" d="M11.25,8.47c0-1.58,1.24-2.81,2.81-2.81s2.81,1.24,2.81,2.81-1.24,2.81-2.81,2.81-2.81-1.24-2.81-2.81Z"/>
      <path class="cls-4" d="M11.25,2.83C11.25,1.26,12.49.02,14.06.02s2.81,1.24,2.81,2.81-1.24,2.81-2.81,2.81-2.81-1.24-2.81-2.81Z"/>
      <path class="cls-3" d="M5.63,14.1c0-1.58,1.24-2.81,2.81-2.81s2.81,1.24,2.81,2.81-1.24,2.81-2.81,2.81-2.81-1.24-2.81-2.81Z"/>
      <path class="cls-1" d="M5.63,8.47c0-1.58,1.24-2.81,2.81-2.81s2.81,1.24,2.81,2.81-1.24,2.81-2.81,2.81-2.81-1.24-2.81-2.81Z"/>
      <path class="cls-4" d="M5.63,2.84C5.63,1.26,6.87.03,8.44.03s2.81,1.24,2.81,2.81-1.24,2.81-2.81,2.81-2.81-1.24-2.81-2.81Z"/>
      <path class="cls-4" d="M67.51,47.84c0-1.58,1.24-2.81,2.81-2.81s2.81,1.24,2.81,2.81-1.24,2.81-2.81,2.81-2.81-1.24-2.81-2.81Z"/>
      <path class="cls-1" d="M67.51,53.47c0-1.58,1.24-2.81,2.81-2.81s2.81,1.24,2.81,2.81-1.24,2.81-2.81,2.81-2.81-1.24-2.81-2.81Z"/>
      <path class="cls-3" d="M67.51,59.09c0-1.58,1.24-2.81,2.81-2.81s2.81,1.24,2.81,2.81-1.24,2.81-2.81,2.81-2.81-1.24-2.81-2.81Z"/>
      <path class="cls-3" d="M0,14.07c0-1.58,1.24-2.81,2.81-2.81s2.81,1.24,2.81,2.81-1.24,2.81-2.81,2.81-2.81-1.24-2.81-2.81Z"/>
      <path class="cls-1" d="M0,8.45c0-1.58,1.24-2.81,2.81-2.81s2.81,1.24,2.81,2.81-1.24,2.81-2.81,2.81-2.81-1.24-2.81-2.81Z"/>
      <path class="cls-4" d="M0,2.81C0,1.24,1.24,0,2.81,0s2.81,1.24,2.81,2.81-1.24,2.81-2.81,2.81S0,4.39,0,2.81Z"/>
    </g>
  </g>
</svg>