<?xml version="1.0" encoding="UTF-8"?>
<svg id="Calque_2" data-name="Calque 2" xmlns="http://www.w3.org/2000/svg" viewBox="0 0 486.8 61.9">
  <defs>
    <style>
      .cls-1 {
        fill: #00a092;
      }

      .cls-2 {
        fill: #d3d3d3;
      }

      .cls-3 {
        fill: #d2d200;
      }

      .cls-4 {
        fill: #d282be;
      }

      .cls-5 {
        fill: #e8ab00;
      }
    </style>
  </defs>
  <g id="Calque_1-2" data-name="Calque 1">
    <g>
      <g>
        <rect y=".02" width="486.8" height="61.88"/>
        <path class="cls-5" d="M65.82,3.09c0-1.73,1.36-3.09,3.09-3.09s3.1,1.36,3.1,3.09-1.36,3.09-3.1,3.09-3.09-1.36-3.09-3.09ZM65.82,9.28c0-1.73,1.36-3.09,3.09-3.09s3.1,1.36,3.1,3.09-1.36,3.09-3.1,3.09-3.09-1.36-3.09-3.09ZM72.01,3.09c0-1.73,1.36-3.09,3.09-3.09s3.1,1.36,3.1,3.09-1.36,3.09-3.1,3.09-3.09-1.36-3.09-3.09ZM72.01,9.28c0-1.73,1.36-3.09,3.09-3.09s3.1,1.36,3.1,3.09-1.36,3.09-3.1,3.09-3.09-1.36-3.09-3.09ZM78.2,3.09c0-1.73,1.36-3.09,3.09-3.09s3.1,1.36,3.1,3.09-1.36,3.09-3.1,3.09-3.09-1.36-3.09-3.09ZM78.2,9.28c0-1.73,1.36-3.09,3.09-3.09s3.1,1.36,3.1,3.09-1.36,3.09-3.1,3.09-3.09-1.36-3.09-3.09ZM84.39,3.09c0-1.73,1.36-3.09,3.09-3.09s3.1,1.36,3.1,3.09-1.36,3.09-3.1,3.09-3.09-1.36-3.09-3.09ZM84.39,9.28c0-1.73,1.36-3.09,3.09-3.09s3.1,1.36,3.1,3.09-1.36,3.09-3.1,3.09-3.09-1.36-3.09-3.09ZM84.39,15.47c0-1.73,1.36-3.09,3.09-3.09s3.1,1.36,3.1,3.09-1.36,3.09-3.1,3.09-3.09-1.36-3.09-3.09ZM84.39,21.66c0-1.73,1.36-3.09,3.09-3.09s3.1,1.36,3.1,3.09-1.36,3.09-3.1,3.09-3.09-1.36-3.09-3.09ZM84.39,27.85c0-1.73,1.36-3.09,3.09-3.09s3.1,1.36,3.1,3.09-1.36,3.09-3.1,3.09-3.09-1.36-3.09-3.09ZM84.39,34.04c0-1.73,1.36-3.09,3.09-3.09s3.1,1.36,3.1,3.09-1.36,3.09-3.1,3.09-3.09-1.36-3.09-3.09ZM84.39,40.23c0-1.73,1.36-3.09,3.09-3.09s3.1,1.36,3.1,3.09-1.36,3.09-3.1,3.09-3.09-1.36-3.09-3.09ZM84.39,46.42c0-1.73,1.36-3.09,3.09-3.09s3.1,1.36,3.1,3.09-1.36,3.09-3.1,3.09-3.09-1.36-3.09-3.09ZM84.39,52.61c0-1.73,1.36-3.09,3.09-3.09s3.1,1.36,3.1,3.09-1.36,3.09-3.1,3.09-3.09-1.36-3.09-3.09ZM84.39,58.8c0-1.73,1.36-3.09,3.09-3.09s3.1,1.36,3.1,3.09-1.36,3.09-3.1,3.09-3.09-1.36-3.09-3.09ZM90.58,3.09c0-1.73,1.36-3.09,3.09-3.09s3.1,1.36,3.1,3.09-1.36,3.09-3.1,3.09-3.09-1.36-3.09-3.09ZM90.58,9.28c0-1.73,1.36-3.09,3.09-3.09s3.1,1.36,3.1,3.09-1.36,3.09-3.1,3.09-3.09-1.36-3.09-3.09ZM90.58,15.47c0-1.73,1.36-3.09,3.09-3.09s3.1,1.36,3.1,3.09-1.36,3.09-3.1,3.09-3.09-1.36-3.09-3.09ZM90.58,21.66c0-1.73,1.36-3.09,3.09-3.09s3.1,1.36,3.1,3.09-1.36,3.09-3.1,3.09-3.09-1.36-3.09-3.09ZM90.58,27.85c0-1.73,1.36-3.09,3.09-3.09s3.1,1.36,3.1,3.09-1.36,3.09-3.1,3.09-3.09-1.36-3.09-3.09ZM90.58,34.04c0-1.73,1.36-3.09,3.09-3.09s3.1,1.36,3.1,3.09-1.36,3.09-3.1,3.09-3.09-1.36-3.09-3.09ZM90.58,40.23c0-1.73,1.36-3.09,3.09-3.09s3.1,1.36,3.1,3.09-1.36,3.09-3.1,3.09-3.09-1.36-3.09-3.09ZM90.58,46.42c0-1.73,1.36-3.09,3.09-3.09s3.1,1.36,3.1,3.09-1.36,3.09-3.1,3.09-3.09-1.36-3.09-3.09ZM90.58,52.61c0-1.73,1.36-3.09,3.09-3.09s3.1,1.36,3.1,3.09-1.36,3.09-3.1,3.09-3.09-1.36-3.09-3.09ZM90.58,58.8c0-1.73,1.36-3.09,3.09-3.09s3.1,1.36,3.1,3.09-1.36,3.09-3.1,3.09-3.09-1.36-3.09-3.09ZM96.77,3.09c0-1.73,1.36-3.09,3.09-3.09s3.1,1.36,3.1,3.09-1.36,3.09-3.1,3.09-3.09-1.36-3.09-3.09ZM96.77,9.28c0-1.73,1.36-3.09,3.09-3.09s3.1,1.36,3.1,3.09-1.36,3.09-3.1,3.09-3.09-1.36-3.09-3.09ZM102.96,3.09c0-1.73,1.36-3.09,3.09-3.09s3.1,1.36,3.1,3.09-1.36,3.09-3.1,3.09-3.09-1.36-3.09-3.09ZM102.96,9.28c0-1.73,1.36-3.09,3.09-3.09s3.1,1.36,3.1,3.09-1.36,3.09-3.1,3.09-3.09-1.36-3.09-3.09ZM109.15,3.09c0-1.73,1.36-3.09,3.09-3.09s3.1,1.36,3.1,3.09-1.36,3.09-3.1,3.09-3.09-1.36-3.09-3.09ZM109.15,9.28c0-1.73,1.36-3.09,3.09-3.09s3.1,1.36,3.1,3.09-1.36,3.09-3.1,3.09-3.09-1.36-3.09-3.09Z"/>
        <path class="cls-5" d="M115.35,27.85c0-1.73,1.36-3.09,3.09-3.09s3.1,1.36,3.1,3.09-1.36,3.09-3.1,3.09-3.09-1.36-3.09-3.09ZM115.35,34.04c0-1.73,1.36-3.09,3.09-3.09s3.1,1.36,3.1,3.09-1.36,3.09-3.1,3.09-3.09-1.36-3.09-3.09ZM115.35,40.23c0-1.73,1.36-3.09,3.09-3.09s3.1,1.36,3.1,3.09-1.36,3.09-3.1,3.09-3.09-1.36-3.09-3.09ZM115.35,46.42c0-1.73,1.36-3.09,3.09-3.09s3.1,1.36,3.1,3.09-1.36,3.09-3.1,3.09-3.09-1.36-3.09-3.09ZM121.54,21.66c0-1.73,1.36-3.09,3.09-3.09s3.1,1.36,3.1,3.09-1.36,3.09-3.1,3.09-3.09-1.36-3.09-3.09ZM121.54,27.85c0-1.73,1.36-3.09,3.09-3.09s3.1,1.36,3.1,3.09-1.36,3.09-3.1,3.09-3.09-1.36-3.09-3.09ZM121.54,34.04c0-1.73,1.36-3.09,3.09-3.09s3.1,1.36,3.1,3.09-1.36,3.09-3.1,3.09-3.09-1.36-3.09-3.09ZM121.54,40.23c0-1.73,1.36-3.09,3.09-3.09s3.1,1.36,3.1,3.09-1.36,3.09-3.1,3.09-3.09-1.36-3.09-3.09ZM121.54,46.42c0-1.73,1.36-3.09,3.09-3.09s3.1,1.36,3.1,3.09-1.36,3.09-3.1,3.09-3.09-1.36-3.09-3.09ZM121.54,52.61c0-1.73,1.36-3.09,3.09-3.09s3.1,1.36,3.1,3.09-1.36,3.09-3.1,3.09-3.09-1.36-3.09-3.09ZM127.73,15.47c0-1.73,1.36-3.09,3.09-3.09s3.1,1.36,3.1,3.09-1.36,3.09-3.1,3.09-3.09-1.36-3.09-3.09ZM127.73,21.66c0-1.73,1.36-3.09,3.09-3.09s3.1,1.36,3.1,3.09-1.36,3.09-3.1,3.09-3.09-1.36-3.09-3.09ZM127.73,27.85c0-1.73,1.36-3.09,3.09-3.09s3.1,1.36,3.1,3.09-1.36,3.09-3.1,3.09-3.09-1.36-3.09-3.09ZM127.73,46.42c0-1.73,1.36-3.09,3.09-3.09s3.1,1.36,3.1,3.09-1.36,3.09-3.1,3.09-3.09-1.36-3.09-3.09ZM127.73,52.61c0-1.73,1.36-3.09,3.09-3.09s3.1,1.36,3.1,3.09-1.36,3.09-3.1,3.09-3.09-1.36-3.09-3.09ZM127.73,58.8c0-1.73,1.36-3.09,3.09-3.09s3.1,1.36,3.1,3.09-1.36,3.09-3.1,3.09-3.09-1.36-3.09-3.09ZM133.92,15.47c0-1.73,1.36-3.09,3.09-3.09s3.1,1.36,3.1,3.09-1.36,3.09-3.1,3.09-3.09-1.36-3.09-3.09ZM133.92,21.66c0-1.73,1.36-3.09,3.09-3.09s3.1,1.36,3.1,3.09-1.36,3.09-3.1,3.09-3.09-1.36-3.09-3.09ZM133.92,52.61c0-1.73,1.36-3.09,3.09-3.09s3.1,1.36,3.1,3.09-1.36,3.09-3.1,3.09-3.09-1.36-3.09-3.09ZM133.92,58.8c0-1.73,1.36-3.09,3.09-3.09s3.1,1.36,3.1,3.09-1.36,3.09-3.1,3.09-3.09-1.36-3.09-3.09ZM140.11,15.47c0-1.73,1.36-3.09,3.09-3.09s3.1,1.36,3.1,3.09-1.36,3.09-3.1,3.09-3.09-1.36-3.09-3.09ZM140.11,21.66c0-1.73,1.36-3.09,3.09-3.09s3.1,1.36,3.1,3.09-1.36,3.09-3.1,3.09-3.09-1.36-3.09-3.09ZM140.11,52.61c0-1.73,1.36-3.09,3.09-3.09s3.1,1.36,3.1,3.09-1.36,3.09-3.1,3.09-3.09-1.36-3.09-3.09ZM140.11,58.8c0-1.73,1.36-3.09,3.09-3.09s3.1,1.36,3.1,3.09-1.36,3.09-3.1,3.09-3.09-1.36-3.09-3.09ZM146.3,15.47c0-1.73,1.36-3.09,3.09-3.09s3.1,1.36,3.1,3.09-1.36,3.09-3.1,3.09-3.09-1.36-3.09-3.09ZM146.3,21.66c0-1.73,1.36-3.09,3.09-3.09s3.1,1.36,3.1,3.09-1.36,3.09-3.1,3.09-3.09-1.36-3.09-3.09ZM146.3,27.85c0-1.73,1.36-3.09,3.09-3.09s3.1,1.36,3.1,3.09-1.36,3.09-3.1,3.09-3.09-1.36-3.09-3.09ZM146.3,46.42c0-1.73,1.36-3.09,3.09-3.09s3.1,1.36,3.1,3.09-1.36,3.09-3.1,3.09-3.09-1.36-3.09-3.09ZM146.3,52.61c0-1.73,1.36-3.09,3.09-3.09s3.1,1.36,3.1,3.09-1.36,3.09-3.1,3.09-3.09-1.36-3.09-3.09ZM146.3,58.8c0-1.73,1.36-3.09,3.09-3.09s3.1,1.36,3.1,3.09-1.36,3.09-3.1,3.09-3.09-1.36-3.09-3.09ZM152.49,21.66c0-1.73,1.36-3.09,3.09-3.09s3.1,1.36,3.1,3.09-1.36,3.09-3.1,3.09-3.09-1.36-3.09-3.09ZM152.49,27.85c0-1.73,1.36-3.09,3.09-3.09s3.1,1.36,3.1,3.09-1.36,3.09-3.1,3.09-3.09-1.36-3.09-3.09ZM152.49,46.42c0-1.73,1.36-3.09,3.09-3.09s3.1,1.36,3.1,3.09-1.36,3.09-3.1,3.09-3.09-1.36-3.09-3.09ZM152.49,52.61c0-1.73,1.36-3.09,3.09-3.09s3.1,1.36,3.1,3.09-1.36,3.09-3.1,3.09-3.09-1.36-3.09-3.09Z"/>
        <path class="cls-5" d="M164.88,3.09c0-1.73,1.36-3.09,3.09-3.09s3.1,1.36,3.1,3.09-1.36,3.09-3.1,3.09-3.09-1.36-3.09-3.09ZM164.88,9.28c0-1.73,1.36-3.09,3.09-3.09s3.1,1.36,3.1,3.09-1.36,3.09-3.1,3.09-3.09-1.36-3.09-3.09ZM164.88,15.47c0-1.73,1.36-3.09,3.09-3.09s3.1,1.36,3.1,3.09-1.36,3.09-3.1,3.09-3.09-1.36-3.09-3.09ZM164.88,21.66c0-1.73,1.36-3.09,3.09-3.09s3.1,1.36,3.1,3.09-1.36,3.09-3.1,3.09-3.09-1.36-3.09-3.09ZM164.88,27.85c0-1.73,1.36-3.09,3.09-3.09s3.1,1.36,3.1,3.09-1.36,3.09-3.1,3.09-3.09-1.36-3.09-3.09ZM164.88,34.04c0-1.73,1.36-3.09,3.09-3.09s3.1,1.36,3.1,3.09-1.36,3.09-3.1,3.09-3.09-1.36-3.09-3.09ZM164.88,40.23c0-1.73,1.36-3.09,3.09-3.09s3.1,1.36,3.1,3.09-1.36,3.09-3.1,3.09-3.09-1.36-3.09-3.09ZM164.88,46.42c0-1.73,1.36-3.09,3.09-3.09s3.1,1.36,3.1,3.09-1.36,3.09-3.1,3.09-3.09-1.36-3.09-3.09ZM164.88,52.61c0-1.73,1.36-3.09,3.09-3.09s3.1,1.36,3.1,3.09-1.36,3.09-3.1,3.09-3.09-1.36-3.09-3.09ZM164.88,58.8c0-1.73,1.36-3.09,3.09-3.09s3.1,1.36,3.1,3.09-1.36,3.09-3.1,3.09-3.09-1.36-3.09-3.09ZM171.07,3.09c0-1.73,1.36-3.09,3.09-3.09s3.1,1.36,3.1,3.09-1.36,3.09-3.1,3.09-3.09-1.36-3.09-3.09ZM171.07,9.28c0-1.73,1.36-3.09,3.09-3.09s3.1,1.36,3.1,3.09-1.36,3.09-3.1,3.09-3.09-1.36-3.09-3.09ZM171.07,15.47c0-1.73,1.36-3.09,3.09-3.09s3.1,1.36,3.1,3.09-1.36,3.09-3.1,3.09-3.09-1.36-3.09-3.09ZM171.07,21.66c0-1.73,1.36-3.09,3.09-3.09s3.1,1.36,3.1,3.09-1.36,3.09-3.1,3.09-3.09-1.36-3.09-3.09ZM171.07,27.85c0-1.73,1.36-3.09,3.09-3.09s3.1,1.36,3.1,3.09-1.36,3.09-3.1,3.09-3.09-1.36-3.09-3.09ZM171.07,34.04c0-1.73,1.36-3.09,3.09-3.09s3.1,1.36,3.1,3.09-1.36,3.09-3.1,3.09-3.09-1.36-3.09-3.09ZM171.07,40.23c0-1.73,1.36-3.09,3.09-3.09s3.1,1.36,3.1,3.09-1.36,3.09-3.1,3.09-3.09-1.36-3.09-3.09ZM171.07,46.42c0-1.73,1.36-3.09,3.09-3.09s3.1,1.36,3.1,3.09-1.36,3.09-3.1,3.09-3.09-1.36-3.09-3.09ZM171.07,52.61c0-1.73,1.36-3.09,3.09-3.09s3.1,1.36,3.1,3.09-1.36,3.09-3.1,3.09-3.09-1.36-3.09-3.09ZM171.07,58.8c0-1.73,1.36-3.09,3.09-3.09s3.1,1.36,3.1,3.09-1.36,3.09-3.1,3.09-3.09-1.36-3.09-3.09ZM177.26,9.28c0-1.73,1.36-3.09,3.09-3.09s3.1,1.36,3.1,3.09-1.36,3.09-3.1,3.09-3.09-1.36-3.09-3.09ZM177.26,15.47c0-1.73,1.36-3.09,3.09-3.09s3.1,1.36,3.1,3.09-1.36,3.09-3.1,3.09-3.09-1.36-3.09-3.09ZM177.26,21.66c0-1.73,1.36-3.09,3.09-3.09s3.1,1.36,3.1,3.09-1.36,3.09-3.1,3.09-3.09-1.36-3.09-3.09ZM183.45,15.47c0-1.73,1.36-3.09,3.09-3.09s3.1,1.36,3.1,3.09-1.36,3.09-3.1,3.09-3.09-1.36-3.09-3.09ZM183.45,21.66c0-1.73,1.36-3.09,3.09-3.09s3.1,1.36,3.1,3.09-1.36,3.09-3.1,3.09-3.09-1.36-3.09-3.09ZM183.45,27.85c0-1.73,1.36-3.09,3.09-3.09s3.1,1.36,3.1,3.09-1.36,3.09-3.1,3.09-3.09-1.36-3.09-3.09ZM189.64,21.66c0-1.73,1.36-3.09,3.09-3.09s3.1,1.36,3.1,3.09-1.36,3.09-3.1,3.09-3.09-1.36-3.09-3.09ZM189.64,27.85c0-1.73,1.36-3.09,3.09-3.09s3.1,1.36,3.1,3.09-1.36,3.09-3.1,3.09-3.09-1.36-3.09-3.09ZM189.64,34.04c0-1.73,1.36-3.09,3.09-3.09s3.1,1.36,3.1,3.09-1.36,3.09-3.1,3.09-3.09-1.36-3.09-3.09ZM195.83,27.85c0-1.73,1.36-3.09,3.09-3.09s3.1,1.36,3.1,3.09-1.36,3.09-3.1,3.09-3.09-1.36-3.09-3.09ZM195.83,34.04c0-1.73,1.36-3.09,3.09-3.09s3.1,1.36,3.1,3.09-1.36,3.09-3.1,3.09-3.09-1.36-3.09-3.09ZM195.83,40.23c0-1.73,1.36-3.09,3.09-3.09s3.1,1.36,3.1,3.09-1.36,3.09-3.1,3.09-3.09-1.36-3.09-3.09ZM202.02,3.09c0-1.73,1.36-3.09,3.09-3.09s3.1,1.36,3.1,3.09-1.36,3.09-3.1,3.09-3.09-1.36-3.09-3.09ZM202.02,9.28c0-1.73,1.36-3.09,3.09-3.09s3.1,1.36,3.1,3.09-1.36,3.09-3.1,3.09-3.09-1.36-3.09-3.09ZM202.02,15.47c0-1.73,1.36-3.09,3.09-3.09s3.1,1.36,3.1,3.09-1.36,3.09-3.1,3.09-3.09-1.36-3.09-3.09ZM202.02,21.66c0-1.73,1.36-3.09,3.09-3.09s3.1,1.36,3.1,3.09-1.36,3.09-3.1,3.09-3.09-1.36-3.09-3.09ZM202.02,27.85c0-1.73,1.36-3.09,3.09-3.09s3.1,1.36,3.1,3.09-1.36,3.09-3.1,3.09-3.09-1.36-3.09-3.09ZM202.02,34.04c0-1.73,1.36-3.09,3.09-3.09s3.1,1.36,3.1,3.09-1.36,3.09-3.1,3.09-3.09-1.36-3.09-3.09ZM202.02,40.23c0-1.73,1.36-3.09,3.09-3.09s3.1,1.36,3.1,3.09-1.36,3.09-3.1,3.09-3.09-1.36-3.09-3.09ZM202.02,46.42c0-1.73,1.36-3.09,3.09-3.09s3.1,1.36,3.1,3.09-1.36,3.09-3.1,3.09-3.09-1.36-3.09-3.09ZM202.02,52.61c0-1.73,1.36-3.09,3.09-3.09s3.1,1.36,3.1,3.09-1.36,3.09-3.1,3.09-3.09-1.36-3.09-3.09ZM202.02,58.8c0-1.73,1.36-3.09,3.09-3.09s3.1,1.36,3.1,3.09-1.36,3.09-3.1,3.09-3.09-1.36-3.09-3.09ZM208.21,3.09c0-1.73,1.36-3.09,3.09-3.09s3.09,1.36,3.09,3.09-1.36,3.09-3.09,3.09-3.09-1.36-3.09-3.09ZM208.21,9.28c0-1.73,1.36-3.09,3.09-3.09s3.09,1.36,3.09,3.09-1.36,3.09-3.09,3.09-3.09-1.36-3.09-3.09ZM208.21,15.47c0-1.73,1.36-3.09,3.09-3.09s3.09,1.36,3.09,3.09-1.36,3.09-3.09,3.09-3.09-1.36-3.09-3.09ZM208.21,21.66c0-1.73,1.36-3.09,3.09-3.09s3.09,1.36,3.09,3.09-1.36,3.09-3.09,3.09-3.09-1.36-3.09-3.09ZM208.21,27.85c0-1.73,1.36-3.09,3.09-3.09s3.09,1.36,3.09,3.09-1.36,3.09-3.09,3.09-3.09-1.36-3.09-3.09ZM208.21,34.04c0-1.73,1.36-3.09,3.09-3.09s3.09,1.36,3.09,3.09-1.36,3.09-3.09,3.09-3.09-1.36-3.09-3.09ZM208.21,40.23c0-1.73,1.36-3.09,3.09-3.09s3.09,1.36,3.09,3.09-1.36,3.09-3.09,3.09-3.09-1.36-3.09-3.09ZM208.21,46.42c0-1.73,1.36-3.09,3.09-3.09s3.09,1.36,3.09,3.09-1.36,3.09-3.09,3.09-3.09-1.36-3.09-3.09ZM208.21,52.61c0-1.73,1.36-3.09,3.09-3.09s3.09,1.36,3.09,3.09-1.36,3.09-3.09,3.09-3.09-1.36-3.09-3.09ZM208.21,58.8c0-1.73,1.36-3.09,3.09-3.09s3.09,1.36,3.09,3.09-1.36,3.09-3.09,3.09-3.09-1.36-3.09-3.09Z"/>
        <path class="cls-5" d="M220.6,27.85c0-1.73,1.36-3.09,3.09-3.09s3.1,1.36,3.1,3.09-1.36,3.09-3.1,3.09-3.09-1.36-3.09-3.09ZM220.6,34.04c0-1.73,1.36-3.09,3.09-3.09s3.1,1.36,3.1,3.09-1.36,3.09-3.1,3.09-3.09-1.36-3.09-3.09ZM220.6,40.23c0-1.73,1.36-3.09,3.09-3.09s3.1,1.36,3.1,3.09-1.36,3.09-3.1,3.09-3.09-1.36-3.09-3.09ZM220.6,46.42c0-1.73,1.36-3.09,3.09-3.09s3.1,1.36,3.1,3.09-1.36,3.09-3.1,3.09-3.09-1.36-3.09-3.09ZM226.79,21.66c0-1.73,1.36-3.09,3.09-3.09s3.1,1.36,3.1,3.09-1.36,3.09-3.1,3.09-3.09-1.36-3.09-3.09ZM226.79,27.85c0-1.73,1.36-3.09,3.09-3.09s3.1,1.36,3.1,3.09-1.36,3.09-3.1,3.09-3.09-1.36-3.09-3.09ZM226.79,34.04c0-1.73,1.36-3.09,3.09-3.09s3.1,1.36,3.1,3.09-1.36,3.09-3.1,3.09-3.09-1.36-3.09-3.09ZM226.79,40.23c0-1.73,1.36-3.09,3.09-3.09s3.1,1.36,3.1,3.09-1.36,3.09-3.1,3.09-3.09-1.36-3.09-3.09ZM226.79,46.42c0-1.73,1.36-3.09,3.09-3.09s3.1,1.36,3.1,3.09-1.36,3.09-3.1,3.09-3.09-1.36-3.09-3.09ZM226.79,52.61c0-1.73,1.36-3.09,3.09-3.09s3.1,1.36,3.1,3.09-1.36,3.09-3.1,3.09-3.09-1.36-3.09-3.09ZM232.98,15.47c0-1.73,1.36-3.09,3.09-3.09s3.1,1.36,3.1,3.09-1.36,3.09-3.1,3.09-3.09-1.36-3.09-3.09ZM232.98,21.66c0-1.73,1.36-3.09,3.09-3.09s3.1,1.36,3.1,3.09-1.36,3.09-3.1,3.09-3.09-1.36-3.09-3.09ZM232.98,34.04c0-1.73,1.36-3.09,3.09-3.09s3.1,1.36,3.1,3.09-1.36,3.09-3.1,3.09-3.09-1.36-3.09-3.09ZM232.98,40.23c0-1.73,1.36-3.09,3.09-3.09s3.1,1.36,3.1,3.09-1.36,3.09-3.1,3.09-3.09-1.36-3.09-3.09ZM232.98,52.61c0-1.73,1.36-3.09,3.09-3.09s3.1,1.36,3.1,3.09-1.36,3.09-3.1,3.09-3.09-1.36-3.09-3.09ZM232.98,58.8c0-1.73,1.36-3.09,3.09-3.09s3.1,1.36,3.1,3.09-1.36,3.09-3.1,3.09-3.09-1.36-3.09-3.09ZM239.17,15.47c0-1.73,1.36-3.09,3.09-3.09s3.1,1.36,3.1,3.09-1.36,3.09-3.1,3.09-3.09-1.36-3.09-3.09ZM239.17,21.66c0-1.73,1.36-3.09,3.09-3.09s3.1,1.36,3.1,3.09-1.36,3.09-3.1,3.09-3.09-1.36-3.09-3.09ZM239.17,34.04c0-1.73,1.36-3.09,3.09-3.09s3.1,1.36,3.1,3.09-1.36,3.09-3.1,3.09-3.09-1.36-3.09-3.09ZM239.17,40.23c0-1.73,1.36-3.09,3.09-3.09s3.1,1.36,3.1,3.09-1.36,3.09-3.1,3.09-3.09-1.36-3.09-3.09ZM239.17,52.61c0-1.73,1.36-3.09,3.09-3.09s3.1,1.36,3.1,3.09-1.36,3.09-3.1,3.09-3.09-1.36-3.09-3.09ZM239.17,58.8c0-1.73,1.36-3.09,3.09-3.09s3.1,1.36,3.1,3.09-1.36,3.09-3.1,3.09-3.09-1.36-3.09-3.09ZM245.36,15.47c0-1.73,1.36-3.09,3.09-3.09s3.1,1.36,3.1,3.09-1.36,3.09-3.1,3.09-3.09-1.36-3.09-3.09ZM245.36,21.66c0-1.73,1.36-3.09,3.09-3.09s3.1,1.36,3.1,3.09-1.36,3.09-3.1,3.09-3.09-1.36-3.09-3.09ZM245.36,34.04c0-1.73,1.36-3.09,3.09-3.09s3.1,1.36,3.1,3.09-1.36,3.09-3.1,3.09-3.09-1.36-3.09-3.09ZM245.36,40.23c0-1.73,1.36-3.09,3.09-3.09s3.1,1.36,3.1,3.09-1.36,3.09-3.1,3.09-3.09-1.36-3.09-3.09ZM245.36,52.61c0-1.73,1.36-3.09,3.09-3.09s3.1,1.36,3.1,3.09-1.36,3.09-3.1,3.09-3.09-1.36-3.09-3.09ZM245.36,58.8c0-1.73,1.36-3.09,3.09-3.09s3.1,1.36,3.1,3.09-1.36,3.09-3.1,3.09-3.09-1.36-3.09-3.09ZM251.55,21.66c0-1.73,1.36-3.09,3.09-3.09s3.1,1.36,3.1,3.09-1.36,3.09-3.1,3.09-3.09-1.36-3.09-3.09ZM251.55,27.85c0-1.73,1.36-3.09,3.09-3.09s3.1,1.36,3.1,3.09-1.36,3.09-3.1,3.09-3.09-1.36-3.09-3.09ZM251.55,34.04c0-1.73,1.36-3.09,3.09-3.09s3.1,1.36,3.1,3.09-1.36,3.09-3.1,3.09-3.09-1.36-3.09-3.09ZM251.55,40.23c0-1.73,1.36-3.09,3.09-3.09s3.1,1.36,3.1,3.09-1.36,3.09-3.1,3.09-3.09-1.36-3.09-3.09ZM251.55,52.61c0-1.73,1.36-3.09,3.09-3.09s3.1,1.36,3.1,3.09-1.36,3.09-3.1,3.09-3.09-1.36-3.09-3.09ZM251.55,58.8c0-1.73,1.36-3.09,3.09-3.09s3.1,1.36,3.1,3.09-1.36,3.09-3.1,3.09-3.09-1.36-3.09-3.09ZM257.74,27.85c0-1.73,1.36-3.09,3.09-3.09s3.1,1.36,3.1,3.09-1.36,3.09-3.1,3.09-3.09-1.36-3.09-3.09ZM257.74,34.04c0-1.73,1.36-3.09,3.09-3.09s3.1,1.36,3.1,3.09-1.36,3.09-3.1,3.09-3.09-1.36-3.09-3.09ZM257.74,40.23c0-1.73,1.36-3.09,3.09-3.09s3.1,1.36,3.1,3.09-1.36,3.09-3.1,3.09-3.09-1.36-3.09-3.09ZM257.74,52.61c0-1.73,1.36-3.09,3.09-3.09s3.1,1.36,3.1,3.09-1.36,3.09-3.1,3.09-3.09-1.36-3.09-3.09Z"/>
        <path class="cls-5" d="M270.13,15.47c0-1.73,1.36-3.09,3.09-3.09s3.1,1.36,3.1,3.09-1.36,3.09-3.1,3.09-3.09-1.36-3.09-3.09ZM270.13,21.66c0-1.73,1.36-3.09,3.09-3.09s3.1,1.36,3.1,3.09-1.36,3.09-3.1,3.09-3.09-1.36-3.09-3.09ZM270.13,27.85c0-1.73,1.36-3.09,3.09-3.09s3.1,1.36,3.1,3.09-1.36,3.09-3.1,3.09-3.09-1.36-3.09-3.09ZM276.32,15.47c0-1.73,1.36-3.09,3.09-3.09s3.1,1.36,3.1,3.09-1.36,3.09-3.1,3.09-3.09-1.36-3.09-3.09ZM276.32,21.66c0-1.73,1.36-3.09,3.09-3.09s3.1,1.36,3.1,3.09-1.36,3.09-3.1,3.09-3.09-1.36-3.09-3.09ZM276.32,27.85c0-1.73,1.36-3.09,3.09-3.09s3.1,1.36,3.1,3.09-1.36,3.09-3.1,3.09-3.09-1.36-3.09-3.09ZM276.32,34.04c0-1.73,1.36-3.09,3.09-3.09s3.1,1.36,3.1,3.09-1.36,3.09-3.1,3.09-3.09-1.36-3.09-3.09ZM276.32,40.23c0-1.73,1.36-3.09,3.09-3.09s3.1,1.36,3.1,3.09-1.36,3.09-3.1,3.09-3.09-1.36-3.09-3.09ZM276.32,46.42c0-1.73,1.36-3.09,3.09-3.09s3.1,1.36,3.1,3.09-1.36,3.09-3.1,3.09-3.09-1.36-3.09-3.09ZM282.51,27.85c0-1.73,1.36-3.09,3.09-3.09s3.1,1.36,3.1,3.09-1.36,3.09-3.1,3.09-3.09-1.36-3.09-3.09ZM282.51,34.04c0-1.73,1.36-3.09,3.09-3.09s3.1,1.36,3.1,3.09-1.36,3.09-3.1,3.09-3.09-1.36-3.09-3.09ZM282.51,40.23c0-1.73,1.36-3.09,3.09-3.09s3.1,1.36,3.1,3.09-1.36,3.09-3.1,3.09-3.09-1.36-3.09-3.09ZM282.51,46.42c0-1.73,1.36-3.09,3.09-3.09s3.1,1.36,3.1,3.09-1.36,3.09-3.1,3.09-3.09-1.36-3.09-3.09ZM282.51,52.61c0-1.73,1.36-3.09,3.09-3.09s3.1,1.36,3.1,3.09-1.36,3.09-3.1,3.09-3.09-1.36-3.09-3.09ZM282.51,58.8c0-1.73,1.36-3.09,3.09-3.09s3.1,1.36,3.1,3.09-1.36,3.09-3.1,3.09-3.09-1.36-3.09-3.09ZM288.7,40.23c0-1.73,1.36-3.09,3.09-3.09s3.1,1.36,3.1,3.09-1.36,3.09-3.1,3.09-3.09-1.36-3.09-3.09ZM288.7,46.42c0-1.73,1.36-3.09,3.09-3.09s3.1,1.36,3.1,3.09-1.36,3.09-3.1,3.09-3.09-1.36-3.09-3.09ZM288.7,52.61c0-1.73,1.36-3.09,3.09-3.09s3.1,1.36,3.1,3.09-1.36,3.09-3.1,3.09-3.09-1.36-3.09-3.09ZM288.7,58.8c0-1.73,1.36-3.09,3.09-3.09s3.1,1.36,3.1,3.09-1.36,3.09-3.1,3.09-3.09-1.36-3.09-3.09ZM294.89,27.85c0-1.73,1.36-3.09,3.09-3.09s3.1,1.36,3.1,3.09-1.36,3.09-3.1,3.09-3.09-1.36-3.09-3.09ZM294.89,34.04c0-1.73,1.36-3.09,3.09-3.09s3.1,1.36,3.1,3.09-1.36,3.09-3.1,3.09-3.09-1.36-3.09-3.09ZM294.89,40.23c0-1.73,1.36-3.09,3.09-3.09s3.1,1.36,3.1,3.09-1.36,3.09-3.1,3.09-3.09-1.36-3.09-3.09ZM294.89,46.42c0-1.73,1.36-3.09,3.09-3.09s3.1,1.36,3.1,3.09-1.36,3.09-3.1,3.09-3.09-1.36-3.09-3.09ZM301.08,15.47c0-1.73,1.36-3.09,3.09-3.09s3.1,1.36,3.1,3.09-1.36,3.09-3.1,3.09-3.09-1.36-3.09-3.09ZM301.08,21.66c0-1.73,1.36-3.09,3.09-3.09s3.1,1.36,3.1,3.09-1.36,3.09-3.1,3.09-3.09-1.36-3.09-3.09ZM301.08,27.85c0-1.73,1.36-3.09,3.09-3.09s3.1,1.36,3.1,3.09-1.36,3.09-3.1,3.09-3.09-1.36-3.09-3.09ZM301.08,34.04c0-1.73,1.36-3.09,3.09-3.09s3.1,1.36,3.1,3.09-1.36,3.09-3.1,3.09-3.09-1.36-3.09-3.09ZM307.27,15.47c0-1.73,1.36-3.09,3.09-3.09s3.1,1.36,3.1,3.09-1.36,3.09-3.1,3.09-3.09-1.36-3.09-3.09ZM307.27,21.66c0-1.73,1.36-3.09,3.09-3.09s3.1,1.36,3.1,3.09-1.36,3.09-3.1,3.09-3.09-1.36-3.09-3.09ZM307.27,27.85c0-1.73,1.36-3.09,3.09-3.09s3.1,1.36,3.1,3.09-1.36,3.09-3.1,3.09-3.09-1.36-3.09-3.09ZM307.27,34.04c0-1.73,1.36-3.09,3.09-3.09s3.1,1.36,3.1,3.09-1.36,3.09-3.1,3.09-3.09-1.36-3.09-3.09ZM313.46,27.85c0-1.73,1.36-3.09,3.09-3.09s3.09,1.36,3.09,3.09-1.36,3.09-3.09,3.09-3.09-1.36-3.09-3.09ZM313.46,34.04c0-1.73,1.36-3.09,3.09-3.09s3.09,1.36,3.09,3.09-1.36,3.09-3.09,3.09-3.09-1.36-3.09-3.09ZM313.46,40.23c0-1.73,1.36-3.09,3.09-3.09s3.09,1.36,3.09,3.09-1.36,3.09-3.09,3.09-3.09-1.36-3.09-3.09ZM313.46,46.42c0-1.73,1.36-3.09,3.09-3.09s3.09,1.36,3.09,3.09-1.36,3.09-3.09,3.09-3.09-1.36-3.09-3.09ZM319.65,40.23c0-1.73,1.36-3.09,3.1-3.09s3.09,1.36,3.09,3.09-1.36,3.09-3.09,3.09-3.1-1.36-3.1-3.09ZM319.65,46.42c0-1.73,1.36-3.09,3.1-3.09s3.09,1.36,3.09,3.09-1.36,3.09-3.09,3.09-3.1-1.36-3.1-3.09ZM319.65,52.61c0-1.73,1.36-3.09,3.1-3.09s3.09,1.36,3.09,3.09-1.36,3.09-3.09,3.09-3.1-1.36-3.1-3.09ZM319.65,58.8c0-1.73,1.36-3.09,3.1-3.09s3.09,1.36,3.09,3.09-1.36,3.09-3.09,3.09-3.1-1.36-3.1-3.09ZM325.84,27.85c0-1.73,1.36-3.09,3.1-3.09s3.09,1.36,3.09,3.09-1.36,3.09-3.09,3.09-3.1-1.36-3.1-3.09ZM325.84,34.04c0-1.73,1.36-3.09,3.1-3.09s3.09,1.36,3.09,3.09-1.36,3.09-3.09,3.09-3.1-1.36-3.1-3.09ZM325.84,40.23c0-1.73,1.36-3.09,3.1-3.09s3.09,1.36,3.09,3.09-1.36,3.09-3.09,3.09-3.1-1.36-3.1-3.09ZM325.84,46.42c0-1.73,1.36-3.09,3.1-3.09s3.09,1.36,3.09,3.09-1.36,3.09-3.09,3.09-3.1-1.36-3.1-3.09ZM325.84,52.61c0-1.73,1.36-3.09,3.1-3.09s3.09,1.36,3.09,3.09-1.36,3.09-3.09,3.09-3.1-1.36-3.1-3.09ZM325.84,58.8c0-1.73,1.36-3.09,3.1-3.09s3.09,1.36,3.09,3.09-1.36,3.09-3.09,3.09-3.1-1.36-3.1-3.09ZM332.03,15.47c0-1.73,1.36-3.09,3.1-3.09s3.09,1.36,3.09,3.09-1.36,3.09-3.09,3.09-3.1-1.36-3.1-3.09ZM332.03,21.66c0-1.73,1.36-3.09,3.1-3.09s3.09,1.36,3.09,3.09-1.36,3.09-3.09,3.09-3.1-1.36-3.1-3.09ZM332.03,27.85c0-1.73,1.36-3.09,3.1-3.09s3.09,1.36,3.09,3.09-1.36,3.09-3.09,3.09-3.1-1.36-3.1-3.09ZM332.03,34.04c0-1.73,1.36-3.09,3.1-3.09s3.09,1.36,3.09,3.09-1.36,3.09-3.09,3.09-3.1-1.36-3.1-3.09ZM332.03,40.23c0-1.73,1.36-3.09,3.1-3.09s3.09,1.36,3.09,3.09-1.36,3.09-3.09,3.09-3.1-1.36-3.1-3.09ZM332.03,46.42c0-1.73,1.36-3.09,3.1-3.09s3.09,1.36,3.09,3.09-1.36,3.09-3.09,3.09-3.1-1.36-3.1-3.09ZM338.22,15.47c0-1.73,1.36-3.09,3.1-3.09s3.09,1.36,3.09,3.09-1.36,3.09-3.09,3.09-3.1-1.36-3.1-3.09ZM338.22,21.66c0-1.73,1.36-3.09,3.1-3.09s3.09,1.36,3.09,3.09-1.36,3.09-3.09,3.09-3.1-1.36-3.1-3.09ZM338.22,27.85c0-1.73,1.36-3.09,3.1-3.09s3.09,1.36,3.09,3.09-1.36,3.09-3.09,3.09-3.1-1.36-3.1-3.09Z"/>
        <path class="cls-5" d="M350.62,21.66c0-1.73,1.36-3.09,3.09-3.09s3.1,1.36,3.1,3.09-1.36,3.09-3.1,3.09-3.09-1.36-3.09-3.09ZM350.62,27.85c0-1.73,1.36-3.09,3.09-3.09s3.1,1.36,3.1,3.09-1.36,3.09-3.1,3.09-3.09-1.36-3.09-3.09ZM350.62,34.04c0-1.73,1.36-3.09,3.09-3.09s3.1,1.36,3.1,3.09-1.36,3.09-3.1,3.09-3.09-1.36-3.09-3.09ZM350.62,52.61c0-1.73,1.36-3.09,3.09-3.09s3.1,1.36,3.1,3.09-1.36,3.09-3.1,3.09-3.09-1.36-3.09-3.09ZM356.81,15.47c0-1.73,1.36-3.09,3.09-3.09s3.1,1.36,3.1,3.09-1.36,3.09-3.1,3.09-3.09-1.36-3.09-3.09ZM356.81,21.66c0-1.73,1.36-3.09,3.09-3.09s3.1,1.36,3.1,3.09-1.36,3.09-3.1,3.09-3.09-1.36-3.09-3.09ZM356.81,27.85c0-1.73,1.36-3.09,3.09-3.09s3.1,1.36,3.1,3.09-1.36,3.09-3.1,3.09-3.09-1.36-3.09-3.09ZM356.81,34.04c0-1.73,1.36-3.09,3.09-3.09s3.1,1.36,3.1,3.09-1.36,3.09-3.1,3.09-3.09-1.36-3.09-3.09ZM356.81,40.23c0-1.73,1.36-3.09,3.09-3.09s3.1,1.36,3.1,3.09-1.36,3.09-3.1,3.09-3.09-1.36-3.09-3.09ZM356.81,52.61c0-1.73,1.36-3.09,3.09-3.09s3.1,1.36,3.1,3.09-1.36,3.09-3.1,3.09-3.09-1.36-3.09-3.09ZM356.81,58.8c0-1.73,1.36-3.09,3.09-3.09s3.1,1.36,3.1,3.09-1.36,3.09-3.1,3.09-3.09-1.36-3.09-3.09ZM363,15.47c0-1.73,1.36-3.09,3.09-3.09s3.1,1.36,3.1,3.09-1.36,3.09-3.1,3.09-3.09-1.36-3.09-3.09ZM363,21.66c0-1.73,1.36-3.09,3.09-3.09s3.1,1.36,3.1,3.09-1.36,3.09-3.1,3.09-3.09-1.36-3.09-3.09ZM363,34.04c0-1.73,1.36-3.09,3.09-3.09s3.1,1.36,3.1,3.09-1.36,3.09-3.1,3.09-3.09-1.36-3.09-3.09ZM363,40.23c0-1.73,1.36-3.09,3.09-3.09s3.1,1.36,3.1,3.09-1.36,3.09-3.1,3.09-3.09-1.36-3.09-3.09ZM363,52.61c0-1.73,1.36-3.09,3.09-3.09s3.1,1.36,3.1,3.09-1.36,3.09-3.1,3.09-3.09-1.36-3.09-3.09ZM363,58.8c0-1.73,1.36-3.09,3.09-3.09s3.1,1.36,3.1,3.09-1.36,3.09-3.1,3.09-3.09-1.36-3.09-3.09ZM369.19,15.47c0-1.73,1.36-3.09,3.09-3.09s3.1,1.36,3.1,3.09-1.36,3.09-3.1,3.09-3.09-1.36-3.09-3.09ZM369.19,21.66c0-1.73,1.36-3.09,3.09-3.09s3.1,1.36,3.1,3.09-1.36,3.09-3.1,3.09-3.09-1.36-3.09-3.09ZM369.19,34.04c0-1.73,1.36-3.09,3.09-3.09s3.1,1.36,3.1,3.09-1.36,3.09-3.1,3.09-3.09-1.36-3.09-3.09ZM369.19,40.23c0-1.73,1.36-3.09,3.09-3.09s3.1,1.36,3.1,3.09-1.36,3.09-3.1,3.09-3.09-1.36-3.09-3.09ZM369.19,52.61c0-1.73,1.36-3.09,3.09-3.09s3.1,1.36,3.1,3.09-1.36,3.09-3.1,3.09-3.09-1.36-3.09-3.09ZM369.19,58.8c0-1.73,1.36-3.09,3.09-3.09s3.1,1.36,3.1,3.09-1.36,3.09-3.1,3.09-3.09-1.36-3.09-3.09ZM375.38,15.47c0-1.73,1.36-3.09,3.09-3.09s3.1,1.36,3.1,3.09-1.36,3.09-3.1,3.09-3.09-1.36-3.09-3.09ZM375.38,21.66c0-1.73,1.36-3.09,3.09-3.09s3.1,1.36,3.1,3.09-1.36,3.09-3.1,3.09-3.09-1.36-3.09-3.09ZM375.38,34.04c0-1.73,1.36-3.09,3.09-3.09s3.1,1.36,3.1,3.09-1.36,3.09-3.1,3.09-3.09-1.36-3.09-3.09ZM375.38,40.23c0-1.73,1.36-3.09,3.09-3.09s3.1,1.36,3.1,3.09-1.36,3.09-3.1,3.09-3.09-1.36-3.09-3.09ZM375.38,52.61c0-1.73,1.36-3.09,3.09-3.09s3.1,1.36,3.1,3.09-1.36,3.09-3.1,3.09-3.09-1.36-3.09-3.09ZM375.38,58.8c0-1.73,1.36-3.09,3.09-3.09s3.1,1.36,3.1,3.09-1.36,3.09-3.1,3.09-3.09-1.36-3.09-3.09ZM381.57,15.47c0-1.73,1.36-3.09,3.09-3.09s3.1,1.36,3.1,3.09-1.36,3.09-3.1,3.09-3.09-1.36-3.09-3.09ZM381.57,21.66c0-1.73,1.36-3.09,3.09-3.09s3.1,1.36,3.1,3.09-1.36,3.09-3.1,3.09-3.09-1.36-3.09-3.09ZM381.57,34.04c0-1.73,1.36-3.09,3.09-3.09s3.1,1.36,3.1,3.09-1.36,3.09-3.1,3.09-3.09-1.36-3.09-3.09ZM381.57,40.23c0-1.73,1.36-3.09,3.09-3.09s3.1,1.36,3.1,3.09-1.36,3.09-3.1,3.09-3.09-1.36-3.09-3.09ZM381.57,46.42c0-1.73,1.36-3.09,3.09-3.09s3.1,1.36,3.1,3.09-1.36,3.09-3.1,3.09-3.09-1.36-3.09-3.09ZM381.57,52.61c0-1.73,1.36-3.09,3.09-3.09s3.1,1.36,3.1,3.09-1.36,3.09-3.1,3.09-3.09-1.36-3.09-3.09ZM381.57,58.8c0-1.73,1.36-3.09,3.09-3.09s3.1,1.36,3.1,3.09-1.36,3.09-3.1,3.09-3.09-1.36-3.09-3.09ZM387.76,21.66c0-1.73,1.36-3.09,3.09-3.09s3.1,1.36,3.1,3.09-1.36,3.09-3.1,3.09-3.09-1.36-3.09-3.09ZM387.76,40.23c0-1.73,1.36-3.09,3.09-3.09s3.1,1.36,3.1,3.09-1.36,3.09-3.1,3.09-3.09-1.36-3.09-3.09ZM387.76,46.42c0-1.73,1.36-3.09,3.09-3.09s3.1,1.36,3.1,3.09-1.36,3.09-3.1,3.09-3.09-1.36-3.09-3.09ZM387.76,52.61c0-1.73,1.36-3.09,3.09-3.09s3.1,1.36,3.1,3.09-1.36,3.09-3.1,3.09-3.09-1.36-3.09-3.09Z"/>
        <path class="cls-5" d="M400.15,3.09c0-1.73,1.36-3.09,3.09-3.09s3.1,1.36,3.1,3.09-1.36,3.09-3.1,3.09-3.09-1.36-3.09-3.09ZM400.15,9.28c0-1.73,1.36-3.09,3.09-3.09s3.1,1.36,3.1,3.09-1.36,3.09-3.1,3.09-3.09-1.36-3.09-3.09ZM406.34,3.09c0-1.73,1.36-3.09,3.09-3.09s3.1,1.36,3.1,3.09-1.36,3.09-3.1,3.09-3.09-1.36-3.09-3.09ZM406.34,9.28c0-1.73,1.36-3.09,3.09-3.09s3.1,1.36,3.1,3.09-1.36,3.09-3.1,3.09-3.09-1.36-3.09-3.09ZM412.53,3.09c0-1.73,1.36-3.09,3.09-3.09s3.1,1.36,3.1,3.09-1.36,3.09-3.1,3.09-3.09-1.36-3.09-3.09ZM412.53,9.28c0-1.73,1.36-3.09,3.09-3.09s3.1,1.36,3.1,3.09-1.36,3.09-3.1,3.09-3.09-1.36-3.09-3.09ZM412.53,15.47c0-1.73,1.36-3.09,3.09-3.09s3.1,1.36,3.1,3.09-1.36,3.09-3.1,3.09-3.09-1.36-3.09-3.09ZM412.53,21.66c0-1.73,1.36-3.09,3.09-3.09s3.1,1.36,3.1,3.09-1.36,3.09-3.1,3.09-3.09-1.36-3.09-3.09ZM412.53,27.85c0-1.73,1.36-3.09,3.09-3.09s3.1,1.36,3.1,3.09-1.36,3.09-3.1,3.09-3.09-1.36-3.09-3.09ZM412.53,34.04c0-1.73,1.36-3.09,3.09-3.09s3.1,1.36,3.1,3.09-1.36,3.09-3.1,3.09-3.09-1.36-3.09-3.09ZM412.53,40.23c0-1.73,1.36-3.09,3.09-3.09s3.1,1.36,3.1,3.09-1.36,3.09-3.1,3.09-3.09-1.36-3.09-3.09ZM418.72,3.09c0-1.73,1.36-3.09,3.09-3.09s3.1,1.36,3.1,3.09-1.36,3.09-3.1,3.09-3.09-1.36-3.09-3.09ZM418.72,9.28c0-1.73,1.36-3.09,3.09-3.09s3.1,1.36,3.1,3.09-1.36,3.09-3.1,3.09-3.09-1.36-3.09-3.09ZM418.72,15.47c0-1.73,1.36-3.09,3.09-3.09s3.1,1.36,3.1,3.09-1.36,3.09-3.1,3.09-3.09-1.36-3.09-3.09ZM418.72,21.66c0-1.73,1.36-3.09,3.09-3.09s3.1,1.36,3.1,3.09-1.36,3.09-3.1,3.09-3.09-1.36-3.09-3.09ZM418.72,27.85c0-1.73,1.36-3.09,3.09-3.09s3.1,1.36,3.1,3.09-1.36,3.09-3.1,3.09-3.09-1.36-3.09-3.09ZM418.72,34.04c0-1.73,1.36-3.09,3.09-3.09s3.1,1.36,3.1,3.09-1.36,3.09-3.1,3.09-3.09-1.36-3.09-3.09ZM418.72,40.23c0-1.73,1.36-3.09,3.09-3.09s3.1,1.36,3.1,3.09-1.36,3.09-3.1,3.09-3.09-1.36-3.09-3.09ZM424.91,3.09c0-1.73,1.36-3.09,3.09-3.09s3.1,1.36,3.1,3.09-1.36,3.09-3.1,3.09-3.09-1.36-3.09-3.09ZM424.91,9.28c0-1.73,1.36-3.09,3.09-3.09s3.1,1.36,3.1,3.09-1.36,3.09-3.1,3.09-3.09-1.36-3.09-3.09ZM431.1,3.09c0-1.73,1.36-3.09,3.09-3.09s3.1,1.36,3.1,3.09-1.36,3.09-3.1,3.09-3.09-1.36-3.09-3.09ZM431.1,9.28c0-1.73,1.36-3.09,3.09-3.09s3.1,1.36,3.1,3.09-1.36,3.09-3.1,3.09-3.09-1.36-3.09-3.09ZM443.48,3.09c0-1.73,1.36-3.09,3.09-3.09s3.1,1.36,3.1,3.09-1.36,3.09-3.1,3.09-3.09-1.36-3.09-3.09ZM443.48,9.28c0-1.73,1.36-3.09,3.09-3.09s3.1,1.36,3.1,3.09-1.36,3.09-3.1,3.09-3.09-1.36-3.09-3.09ZM443.48,15.47c0-1.73,1.36-3.09,3.09-3.09s3.1,1.36,3.1,3.09-1.36,3.09-3.1,3.09-3.09-1.36-3.09-3.09ZM443.48,21.66c0-1.73,1.36-3.09,3.09-3.09s3.1,1.36,3.1,3.09-1.36,3.09-3.1,3.09-3.09-1.36-3.09-3.09ZM443.48,27.85c0-1.73,1.36-3.09,3.09-3.09s3.1,1.36,3.1,3.09-1.36,3.09-3.1,3.09-3.09-1.36-3.09-3.09ZM443.48,34.04c0-1.73,1.36-3.09,3.09-3.09s3.1,1.36,3.1,3.09-1.36,3.09-3.1,3.09-3.09-1.36-3.09-3.09ZM443.48,40.23c0-1.73,1.36-3.09,3.09-3.09s3.1,1.36,3.1,3.09-1.36,3.09-3.1,3.09-3.09-1.36-3.09-3.09ZM449.67,3.09c0-1.73,1.36-3.09,3.09-3.09s3.09,1.36,3.09,3.09-1.36,3.09-3.09,3.09-3.09-1.36-3.09-3.09ZM449.67,9.28c0-1.73,1.36-3.09,3.09-3.09s3.09,1.36,3.09,3.09-1.36,3.09-3.09,3.09-3.09-1.36-3.09-3.09ZM449.67,15.47c0-1.73,1.36-3.09,3.09-3.09s3.09,1.36,3.09,3.09-1.36,3.09-3.09,3.09-3.09-1.36-3.09-3.09ZM449.67,21.66c0-1.73,1.36-3.09,3.09-3.09s3.09,1.36,3.09,3.09-1.36,3.09-3.09,3.09-3.09-1.36-3.09-3.09ZM449.67,27.85c0-1.73,1.36-3.09,3.09-3.09s3.09,1.36,3.09,3.09-1.36,3.09-3.09,3.09-3.09-1.36-3.09-3.09ZM449.67,34.04c0-1.73,1.36-3.09,3.09-3.09s3.09,1.36,3.09,3.09-1.36,3.09-3.09,3.09-3.09-1.36-3.09-3.09ZM449.67,40.23c0-1.73,1.36-3.09,3.09-3.09s3.09,1.36,3.09,3.09-1.36,3.09-3.09,3.09-3.09-1.36-3.09-3.09ZM455.85,9.28c0-1.73,1.36-3.09,3.1-3.09s3.09,1.36,3.09,3.09-1.36,3.09-3.09,3.09-3.1-1.36-3.1-3.09ZM455.85,15.47c0-1.73,1.36-3.09,3.1-3.09s3.09,1.36,3.09,3.09-1.36,3.09-3.09,3.09-3.1-1.36-3.1-3.09ZM462.04,15.47c0-1.73,1.36-3.09,3.1-3.09s3.09,1.36,3.09,3.09-1.36,3.09-3.09,3.09-3.1-1.36-3.1-3.09ZM462.04,21.66c0-1.73,1.36-3.09,3.1-3.09s3.09,1.36,3.09,3.09-1.36,3.09-3.09,3.09-3.1-1.36-3.1-3.09ZM468.23,9.28c0-1.73,1.36-3.09,3.1-3.09s3.09,1.36,3.09,3.09-1.36,3.09-3.09,3.09-3.1-1.36-3.1-3.09ZM468.23,15.47c0-1.73,1.36-3.09,3.1-3.09s3.09,1.36,3.09,3.09-1.36,3.09-3.09,3.09-3.1-1.36-3.1-3.09ZM474.42,3.09c0-1.73,1.36-3.09,3.1-3.09s3.09,1.36,3.09,3.09-1.36,3.09-3.09,3.09-3.1-1.36-3.1-3.09ZM474.42,9.28c0-1.73,1.36-3.09,3.1-3.09s3.09,1.36,3.09,3.09-1.36,3.09-3.09,3.09-3.1-1.36-3.1-3.09ZM474.42,15.47c0-1.73,1.36-3.09,3.1-3.09s3.09,1.36,3.09,3.09-1.36,3.09-3.09,3.09-3.1-1.36-3.1-3.09ZM474.42,21.66c0-1.73,1.36-3.09,3.1-3.09s3.09,1.36,3.09,3.09-1.36,3.09-3.09,3.09-3.1-1.36-3.1-3.09ZM474.42,27.85c0-1.73,1.36-3.09,3.1-3.09s3.09,1.36,3.09,3.09-1.36,3.09-3.09,3.09-3.1-1.36-3.1-3.09ZM474.42,34.04c0-1.73,1.36-3.09,3.1-3.09s3.09,1.36,3.09,3.09-1.36,3.09-3.09,3.09-3.1-1.36-3.1-3.09ZM474.42,40.23c0-1.73,1.36-3.09,3.1-3.09s3.09,1.36,3.09,3.09-1.36,3.09-3.09,3.09-3.1-1.36-3.1-3.09ZM480.61,3.09c0-1.73,1.36-3.09,3.1-3.09s3.09,1.36,3.09,3.09-1.36,3.09-3.09,3.09-3.1-1.36-3.1-3.09ZM480.61,9.28c0-1.73,1.36-3.09,3.1-3.09s3.09,1.36,3.09,3.09-1.36,3.09-3.09,3.09-3.1-1.36-3.1-3.09ZM480.61,15.47c0-1.73,1.36-3.09,3.1-3.09s3.09,1.36,3.09,3.09-1.36,3.09-3.09,3.09-3.1-1.36-3.1-3.09ZM480.61,21.66c0-1.73,1.36-3.09,3.1-3.09s3.09,1.36,3.09,3.09-1.36,3.09-3.09,3.09-3.1-1.36-3.1-3.09ZM480.61,27.85c0-1.73,1.36-3.09,3.1-3.09s3.09,1.36,3.09,3.09-1.36,3.09-3.09,3.09-3.1-1.36-3.1-3.09ZM480.61,34.04c0-1.73,1.36-3.09,3.1-3.09s3.09,1.36,3.09,3.09-1.36,3.09-3.09,3.09-3.1-1.36-3.1-3.09ZM480.61,40.23c0-1.73,1.36-3.09,3.1-3.09s3.09,1.36,3.09,3.09-1.36,3.09-3.09,3.09-3.1-1.36-3.1-3.09Z"/>
      </g>
      <g>
        <path class="cls-2" d="M11.25,8.48c0-1.57,1.24-2.81,2.81-2.81s2.81,1.24,2.81,2.81-1.24,2.81-2.81,2.81-2.81-1.24-2.81-2.81ZM11.25,14.11c0-1.58,1.24-2.81,2.81-2.81s2.81,1.24,2.81,2.81-1.24,2.81-2.81,2.81-2.81-1.24-2.81-2.81ZM16.87,8.48c0-1.57,1.24-2.81,2.81-2.81s2.81,1.24,2.81,2.81-1.24,2.81-2.81,2.81-2.81-1.24-2.81-2.81ZM16.87,14.11c0-1.58,1.24-2.81,2.81-2.81s2.81,1.24,2.81,2.81-1.24,2.81-2.81,2.81-2.81-1.24-2.81-2.81ZM22.49,8.48c0-1.57,1.24-2.81,2.81-2.81s2.81,1.24,2.81,2.81-1.24,2.81-2.81,2.81-2.81-1.24-2.81-2.81ZM22.49,14.11c0-1.58,1.24-2.81,2.81-2.81s2.81,1.24,2.81,2.81-1.24,2.81-2.81,2.81-2.81-1.24-2.81-2.81ZM28.12,8.48c0-1.57,1.24-2.81,2.81-2.81s2.81,1.24,2.81,2.81-1.24,2.81-2.81,2.81-2.81-1.24-2.81-2.81ZM28.12,14.11c0-1.58,1.24-2.81,2.81-2.81s2.81,1.24,2.81,2.81-1.24,2.81-2.81,2.81-2.81-1.24-2.81-2.81ZM28.12,19.73c0-1.57,1.24-2.81,2.81-2.81s2.81,1.24,2.81,2.81-1.24,2.81-2.81,2.81-2.81-1.24-2.81-2.81ZM28.12,25.35c0-1.58,1.24-2.81,2.81-2.81s2.81,1.24,2.81,2.81-1.24,2.81-2.81,2.81-2.81-1.24-2.81-2.81ZM28.12,30.97c0-1.57,1.24-2.81,2.81-2.81s2.81,1.24,2.81,2.81-1.24,2.81-2.81,2.81-2.81-1.24-2.81-2.81ZM28.12,36.6c0-1.57,1.24-2.81,2.81-2.81s2.81,1.24,2.81,2.81-1.24,2.81-2.81,2.81-2.81-1.24-2.81-2.81ZM28.12,42.22c0-1.58,1.24-2.81,2.81-2.81s2.81,1.24,2.81,2.81-1.24,2.81-2.81,2.81-2.81-1.24-2.81-2.81ZM28.12,47.84c0-1.57,1.24-2.81,2.81-2.81s2.81,1.24,2.81,2.81-1.24,2.81-2.81,2.81-2.81-1.24-2.81-2.81ZM28.12,53.47c0-1.58,1.24-2.81,2.81-2.81s2.81,1.24,2.81,2.81-1.24,2.81-2.81,2.81-2.81-1.24-2.81-2.81ZM28.12,59.09c0-1.57,1.24-2.81,2.81-2.81s2.81,1.24,2.81,2.81-1.24,2.81-2.81,2.81-2.81-1.24-2.81-2.81ZM33.74,8.48c0-1.57,1.24-2.81,2.81-2.81s2.81,1.24,2.81,2.81-1.24,2.81-2.81,2.81-2.81-1.24-2.81-2.81ZM33.74,14.11c0-1.58,1.24-2.81,2.81-2.81s2.81,1.24,2.81,2.81-1.24,2.81-2.81,2.81-2.81-1.24-2.81-2.81ZM33.74,19.73c0-1.57,1.24-2.81,2.81-2.81s2.81,1.24,2.81,2.81-1.24,2.81-2.81,2.81-2.81-1.24-2.81-2.81ZM33.74,25.35c0-1.58,1.24-2.81,2.81-2.81s2.81,1.24,2.81,2.81-1.24,2.81-2.81,2.81-2.81-1.24-2.81-2.81ZM33.74,30.97c0-1.57,1.24-2.81,2.81-2.81s2.81,1.24,2.81,2.81-1.24,2.81-2.81,2.81-2.81-1.24-2.81-2.81ZM33.74,36.6c0-1.57,1.24-2.81,2.81-2.81s2.81,1.24,2.81,2.81-1.24,2.81-2.81,2.81-2.81-1.24-2.81-2.81ZM33.74,42.22c0-1.58,1.24-2.81,2.81-2.81s2.81,1.24,2.81,2.81-1.24,2.81-2.81,2.81-2.81-1.24-2.81-2.81ZM33.74,47.84c0-1.57,1.24-2.81,2.81-2.81s2.81,1.24,2.81,2.81-1.24,2.81-2.81,2.81-2.81-1.24-2.81-2.81ZM33.74,53.47c0-1.58,1.24-2.81,2.81-2.81s2.81,1.24,2.81,2.81-1.24,2.81-2.81,2.81-2.81-1.24-2.81-2.81ZM33.74,59.09c0-1.57,1.24-2.81,2.81-2.81s2.81,1.24,2.81,2.81-1.24,2.81-2.81,2.81-2.81-1.24-2.81-2.81ZM39.36,53.46c0-1.58,1.24-2.81,2.81-2.81s2.81,1.24,2.81,2.81-1.24,2.81-2.81,2.81-2.81-1.24-2.81-2.81ZM39.36,59.09c0-1.57,1.24-2.81,2.81-2.81s2.81,1.24,2.81,2.81-1.24,2.81-2.81,2.81-2.81-1.24-2.81-2.81ZM44.98,53.46c0-1.58,1.24-2.81,2.81-2.81s2.81,1.24,2.81,2.81-1.24,2.81-2.81,2.81-2.81-1.24-2.81-2.81ZM44.98,59.09c0-1.57,1.24-2.81,2.81-2.81s2.81,1.24,2.81,2.81-1.24,2.81-2.81,2.81-2.81-1.24-2.81-2.81ZM5.62,8.48c0-1.58,1.24-2.81,2.81-2.81s2.81,1.24,2.81,2.81-1.24,2.81-2.81,2.81-2.81-1.24-2.81-2.81ZM11.25,2.86C11.25,1.29,12.48.05,14.06.05s2.81,1.24,2.81,2.81-1.24,2.81-2.81,2.81-2.81-1.24-2.81-2.81ZM16.87,2.86c0-1.57,1.24-2.81,2.81-2.81s2.81,1.24,2.81,2.81-1.24,2.81-2.81,2.81-2.81-1.24-2.81-2.81ZM22.49,2.86c0-1.57,1.24-2.81,2.81-2.81s2.81,1.24,2.81,2.81-1.24,2.81-2.81,2.81-2.81-1.24-2.81-2.81ZM28.12,2.86c0-1.57,1.24-2.81,2.81-2.81s2.81,1.24,2.81,2.81-1.24,2.81-2.81,2.81-2.81-1.24-2.81-2.81ZM33.74,2.86c0-1.57,1.24-2.81,2.81-2.81s2.81,1.24,2.81,2.81-1.24,2.81-2.81,2.81-2.81-1.24-2.81-2.81ZM5.62,2.86C5.62,1.29,6.86.05,8.44.05s2.81,1.24,2.81,2.81-1.24,2.81-2.81,2.81-2.81-1.24-2.81-2.81ZM5.62,14.1c0-1.57,1.24-2.81,2.81-2.81s2.81,1.24,2.81,2.81-1.24,2.81-2.81,2.81-2.81-1.24-2.81-2.81ZM50.61,53.46c0-1.58,1.24-2.81,2.81-2.81s2.81,1.24,2.81,2.81-1.24,2.81-2.81,2.81-2.81-1.24-2.81-2.81ZM50.61,59.09c0-1.57,1.24-2.81,2.81-2.81s2.81,1.24,2.81,2.81-1.24,2.81-2.81,2.81-2.81-1.24-2.81-2.81ZM56.23,53.46c0-1.58,1.24-2.81,2.81-2.81s2.81,1.24,2.81,2.81-1.24,2.81-2.81,2.81-2.81-1.24-2.81-2.81ZM56.23,59.09c0-1.57,1.24-2.81,2.81-2.81s2.81,1.24,2.81,2.81-1.24,2.81-2.81,2.81-2.81-1.24-2.81-2.81ZM39.36,2.86c0-1.57,1.24-2.81,2.81-2.81s2.81,1.24,2.81,2.81-1.24,2.81-2.81,2.81-2.81-1.24-2.81-2.81ZM39.36,8.48c0-1.58,1.24-2.81,2.81-2.81s2.81,1.24,2.81,2.81-1.24,2.81-2.81,2.81-2.81-1.24-2.81-2.81ZM39.36,14.11c0-1.57,1.24-2.81,2.81-2.81s2.81,1.24,2.81,2.81-1.24,2.81-2.81,2.81-2.81-1.24-2.81-2.81ZM39.36,19.73c0-1.58,1.24-2.81,2.81-2.81s2.81,1.24,2.81,2.81-1.24,2.81-2.81,2.81-2.81-1.24-2.81-2.81ZM39.36,25.35c0-1.57,1.24-2.81,2.81-2.81s2.81,1.24,2.81,2.81-1.24,2.81-2.81,2.81-2.81-1.24-2.81-2.81ZM39.36,30.97c0-1.57,1.24-2.81,2.81-2.81s2.81,1.24,2.81,2.81-1.24,2.81-2.81,2.81-2.81-1.24-2.81-2.81ZM39.36,36.6c0-1.58,1.24-2.81,2.81-2.81s2.81,1.24,2.81,2.81-1.24,2.81-2.81,2.81-2.81-1.24-2.81-2.81ZM39.36,42.22c0-1.57,1.24-2.81,2.81-2.81s2.81,1.24,2.81,2.81-1.24,2.81-2.81,2.81-2.81-1.24-2.81-2.81ZM39.36,47.84c0-1.58,1.24-2.81,2.81-2.81s2.81,1.24,2.81,2.81-1.24,2.81-2.81,2.81-2.81-1.24-2.81-2.81ZM44.98,47.84c0-1.58,1.24-2.81,2.81-2.81s2.81,1.24,2.81,2.81-1.24,2.81-2.81,2.81-2.81-1.24-2.81-2.81ZM50.61,47.84c0-1.58,1.24-2.81,2.81-2.81s2.81,1.24,2.81,2.81-1.24,2.81-2.81,2.81-2.81-1.24-2.81-2.81ZM56.23,47.84c0-1.58,1.24-2.81,2.81-2.81s2.81,1.24,2.81,2.81-1.24,2.81-2.81,2.81-2.81-1.24-2.81-2.81ZM61.85,47.84c0-1.58,1.24-2.81,2.81-2.81s2.81,1.24,2.81,2.81-1.24,2.81-2.81,2.81-2.81-1.24-2.81-2.81ZM61.85,53.46c0-1.58,1.24-2.81,2.81-2.81s2.81,1.24,2.81,2.81-1.24,2.81-2.81,2.81-2.81-1.24-2.81-2.81ZM61.85,59.08c0-1.57,1.24-2.81,2.81-2.81s2.81,1.24,2.81,2.81-1.24,2.81-2.81,2.81-2.81-1.24-2.81-2.81Z"/>
        <path class="cls-4" d="M61.85,47.84c0-1.58,1.24-2.81,2.81-2.81s2.81,1.24,2.81,2.81-1.24,2.81-2.81,2.81-2.81-1.24-2.81-2.81Z"/>
        <path class="cls-1" d="M61.85,53.46c0-1.58,1.24-2.81,2.81-2.81s2.81,1.24,2.81,2.81-1.24,2.81-2.81,2.81-2.81-1.24-2.81-2.81Z"/>
        <path class="cls-3" d="M61.85,59.09c0-1.58,1.24-2.81,2.81-2.81s2.81,1.24,2.81,2.81-1.24,2.81-2.81,2.81-2.81-1.24-2.81-2.81Z"/>
        <path class="cls-4" d="M56.23,47.84c0-1.58,1.24-2.81,2.81-2.81s2.81,1.24,2.81,2.81-1.24,2.81-2.81,2.81-2.81-1.24-2.81-2.81Z"/>
        <path class="cls-1" d="M56.23,53.46c0-1.58,1.24-2.81,2.81-2.81s2.81,1.24,2.81,2.81-1.24,2.81-2.81,2.81-2.81-1.24-2.81-2.81Z"/>
        <path class="cls-3" d="M56.23,59.08c0-1.58,1.24-2.81,2.81-2.81s2.81,1.24,2.81,2.81-1.24,2.81-2.81,2.81-2.81-1.24-2.81-2.81Z"/>
        <path class="cls-4" d="M50.61,47.84c0-1.58,1.24-2.81,2.81-2.81s2.81,1.24,2.81,2.81-1.24,2.81-2.81,2.81-2.81-1.24-2.81-2.81Z"/>
        <path class="cls-1" d="M50.61,53.46c0-1.58,1.24-2.81,2.81-2.81s2.81,1.24,2.81,2.81-1.24,2.81-2.81,2.81-2.81-1.24-2.81-2.81Z"/>
        <path class="cls-3" d="M50.61,59.09c0-1.58,1.24-2.81,2.81-2.81s2.81,1.24,2.81,2.81-1.24,2.81-2.81,2.81-2.81-1.24-2.81-2.81Z"/>
        <path class="cls-4" d="M44.98,47.84c0-1.58,1.24-2.81,2.81-2.81s2.81,1.24,2.81,2.81-1.24,2.81-2.81,2.81-2.81-1.24-2.81-2.81Z"/>
        <path class="cls-1" d="M44.98,53.46c0-1.58,1.24-2.81,2.81-2.81s2.81,1.24,2.81,2.81-1.24,2.81-2.81,2.81-2.81-1.24-2.81-2.81Z"/>
        <path class="cls-3" d="M44.98,59.08c0-1.58,1.24-2.81,2.81-2.81s2.81,1.24,2.81,2.81-1.24,2.81-2.81,2.81-2.81-1.24-2.81-2.81Z"/>
        <path class="cls-4" d="M39.36,47.84c0-1.58,1.24-2.81,2.81-2.81s2.81,1.24,2.81,2.81-1.24,2.81-2.81,2.81-2.81-1.24-2.81-2.81Z"/>
        <path class="cls-1" d="M39.36,53.46c0-1.58,1.24-2.81,2.81-2.81s2.81,1.24,2.81,2.81-1.24,2.81-2.81,2.81-2.81-1.24-2.81-2.81Z"/>
        <path class="cls-3" d="M39.36,59.08c0-1.58,1.24-2.81,2.81-2.81s2.81,1.24,2.81,2.81-1.24,2.81-2.81,2.81-2.81-1.24-2.81-2.81Z"/>
        <path class="cls-1" d="M33.74,47.84c0-1.58,1.24-2.81,2.81-2.81s2.81,1.24,2.81,2.81-1.24,2.81-2.81,2.81-2.81-1.24-2.81-2.81Z"/>
        <path class="cls-1" d="M33.74,53.46c0-1.58,1.24-2.81,2.81-2.81s2.81,1.24,2.81,2.81-1.24,2.81-2.81,2.81-2.81-1.24-2.81-2.81Z"/>
        <path class="cls-3" d="M33.74,59.08c0-1.58,1.24-2.81,2.81-2.81s2.81,1.24,2.81,2.81-1.24,2.81-2.81,2.81-2.81-1.24-2.81-2.81Z"/>
        <path class="cls-3" d="M28.12,59.08c0-1.58,1.24-2.81,2.81-2.81s2.81,1.24,2.81,2.81-1.24,2.81-2.81,2.81-2.81-1.24-2.81-2.81Z"/>
        <path class="cls-3" d="M28.12,53.47c0-1.58,1.24-2.81,2.81-2.81s2.81,1.24,2.81,2.81-1.24,2.81-2.81,2.81-2.81-1.24-2.81-2.81Z"/>
        <path class="cls-3" d="M28.12,47.84c0-1.58,1.24-2.81,2.81-2.81s2.81,1.24,2.81,2.81-1.24,2.81-2.81,2.81-2.81-1.24-2.81-2.81Z"/>
        <path class="cls-4" d="M39.36,42.22c0-1.58,1.24-2.81,2.81-2.81s2.81,1.24,2.81,2.81-1.24,2.81-2.81,2.81-2.81-1.24-2.81-2.81Z"/>
        <path class="cls-1" d="M33.74,42.22c0-1.58,1.24-2.81,2.81-2.81s2.81,1.24,2.81,2.81-1.24,2.81-2.81,2.81-2.81-1.24-2.81-2.81Z"/>
        <path class="cls-3" d="M28.12,42.22c0-1.58,1.24-2.81,2.81-2.81s2.81,1.24,2.81,2.81-1.24,2.81-2.81,2.81-2.81-1.24-2.81-2.81Z"/>
        <path class="cls-4" d="M39.36,36.59c0-1.58,1.24-2.81,2.81-2.81s2.81,1.24,2.81,2.81-1.24,2.81-2.81,2.81-2.81-1.24-2.81-2.81Z"/>
        <path class="cls-1" d="M33.74,36.59c0-1.58,1.24-2.81,2.81-2.81s2.81,1.24,2.81,2.81-1.24,2.81-2.81,2.81-2.81-1.24-2.81-2.81Z"/>
        <path class="cls-3" d="M28.12,36.59c0-1.58,1.24-2.81,2.81-2.81s2.81,1.24,2.81,2.81-1.24,2.81-2.81,2.81-2.81-1.24-2.81-2.81Z"/>
        <path class="cls-4" d="M39.36,30.97c0-1.58,1.24-2.81,2.81-2.81s2.81,1.24,2.81,2.81-1.24,2.81-2.81,2.81-2.81-1.24-2.81-2.81Z"/>
        <path class="cls-1" d="M33.74,30.97c0-1.58,1.24-2.81,2.81-2.81s2.81,1.24,2.81,2.81-1.24,2.81-2.81,2.81-2.81-1.24-2.81-2.81Z"/>
        <path class="cls-3" d="M28.12,30.97c0-1.58,1.24-2.81,2.81-2.81s2.81,1.24,2.81,2.81-1.24,2.81-2.81,2.81-2.81-1.24-2.81-2.81Z"/>
        <path class="cls-4" d="M39.36,25.34c0-1.58,1.24-2.81,2.81-2.81s2.81,1.24,2.81,2.81-1.24,2.81-2.81,2.81-2.81-1.24-2.81-2.81Z"/>
        <path class="cls-1" d="M33.74,25.34c0-1.58,1.24-2.81,2.81-2.81s2.81,1.24,2.81,2.81-1.24,2.81-2.81,2.81-2.81-1.24-2.81-2.81Z"/>
        <path class="cls-3" d="M28.12,25.35c0-1.58,1.24-2.81,2.81-2.81s2.81,1.24,2.81,2.81-1.24,2.81-2.81,2.81-2.81-1.24-2.81-2.81Z"/>
        <path class="cls-4" d="M39.36,19.72c0-1.58,1.24-2.81,2.81-2.81s2.81,1.24,2.81,2.81-1.24,2.81-2.81,2.81-2.81-1.24-2.81-2.81Z"/>
        <path class="cls-1" d="M33.74,19.72c0-1.58,1.24-2.81,2.81-2.81s2.81,1.24,2.81,2.81-1.24,2.81-2.81,2.81-2.81-1.24-2.81-2.81Z"/>
        <path class="cls-3" d="M28.12,19.73c0-1.58,1.24-2.81,2.81-2.81s2.81,1.24,2.81,2.81-1.24,2.81-2.81,2.81-2.81-1.24-2.81-2.81Z"/>
        <path class="cls-4" d="M39.36,14.1c0-1.58,1.24-2.81,2.81-2.81s2.81,1.24,2.81,2.81-1.24,2.81-2.81,2.81-2.81-1.24-2.81-2.81Z"/>
        <path class="cls-1" d="M33.74,14.09c0-1.58,1.24-2.81,2.81-2.81s2.81,1.24,2.81,2.81-1.24,2.81-2.81,2.81-2.81-1.24-2.81-2.81Z"/>
        <path class="cls-3" d="M28.12,14.1c0-1.58,1.24-2.81,2.81-2.81s2.81,1.24,2.81,2.81-1.24,2.81-2.81,2.81-2.81-1.24-2.81-2.81Z"/>
        <path class="cls-4" d="M39.36,8.47c0-1.58,1.24-2.81,2.81-2.81s2.81,1.24,2.81,2.81-1.24,2.81-2.81,2.81-2.81-1.24-2.81-2.81Z"/>
        <path class="cls-1" d="M33.74,8.47c0-1.58,1.24-2.81,2.81-2.81s2.81,1.24,2.81,2.81-1.24,2.81-2.81,2.81-2.81-1.24-2.81-2.81Z"/>
        <path class="cls-4" d="M39.36,2.86c0-1.58,1.24-2.81,2.81-2.81s2.81,1.24,2.81,2.81-1.24,2.81-2.81,2.81-2.81-1.24-2.81-2.81Z"/>
        <path class="cls-1" d="M28.12,8.46c0-1.58,1.24-2.81,2.81-2.81s2.81,1.24,2.81,2.81-1.24,2.81-2.81,2.81-2.81-1.24-2.81-2.81Z"/>
        <path class="cls-3" d="M22.49,14.11c0-1.58,1.24-2.81,2.81-2.81s2.81,1.24,2.81,2.81-1.24,2.81-2.81,2.81-2.81-1.24-2.81-2.81Z"/>
        <path class="cls-4" d="M33.74,2.86c0-1.58,1.24-2.81,2.81-2.81s2.81,1.24,2.81,2.81-1.24,2.81-2.81,2.81-2.81-1.24-2.81-2.81Z"/>
        <path class="cls-4" d="M28.12,2.86c0-1.58,1.24-2.81,2.81-2.81s2.81,1.24,2.81,2.81-1.24,2.81-2.81,2.81-2.81-1.24-2.81-2.81Z"/>
        <path class="cls-1" d="M22.49,8.48c0-1.58,1.24-2.81,2.81-2.81s2.81,1.24,2.81,2.81-1.24,2.81-2.81,2.81-2.81-1.24-2.81-2.81Z"/>
        <path class="cls-4" d="M22.49,2.85c0-1.58,1.24-2.81,2.81-2.81s2.81,1.24,2.81,2.81-1.24,2.81-2.81,2.81-2.81-1.24-2.81-2.81Z"/>
        <path class="cls-3" d="M16.87,14.11c0-1.58,1.24-2.81,2.81-2.81s2.81,1.24,2.81,2.81-1.24,2.81-2.81,2.81-2.81-1.24-2.81-2.81Z"/>
        <path class="cls-1" d="M16.87,8.49c0-1.58,1.24-2.81,2.81-2.81s2.81,1.24,2.81,2.81-1.24,2.81-2.81,2.81-2.81-1.24-2.81-2.81Z"/>
        <path class="cls-4" d="M16.87,2.86c0-1.58,1.24-2.81,2.81-2.81s2.81,1.24,2.81,2.81-1.24,2.81-2.81,2.81-2.81-1.24-2.81-2.81Z"/>
        <path class="cls-3" d="M11.25,14.11c0-1.58,1.24-2.81,2.81-2.81s2.81,1.24,2.81,2.81-1.24,2.81-2.81,2.81-2.81-1.24-2.81-2.81Z"/>
        <path class="cls-1" d="M11.25,8.49c0-1.58,1.24-2.81,2.81-2.81s2.81,1.24,2.81,2.81-1.24,2.81-2.81,2.81-2.81-1.24-2.81-2.81Z"/>
        <path class="cls-4" d="M11.25,2.86C11.25,1.28,12.48.05,14.06.05s2.81,1.24,2.81,2.81-1.24,2.81-2.81,2.81-2.81-1.24-2.81-2.81Z"/>
        <path class="cls-3" d="M5.62,14.12c0-1.58,1.24-2.81,2.81-2.81s2.81,1.24,2.81,2.81-1.24,2.81-2.81,2.81-2.81-1.24-2.81-2.81Z"/>
        <path class="cls-1" d="M5.62,8.49c0-1.58,1.24-2.81,2.81-2.81s2.81,1.24,2.81,2.81-1.24,2.81-2.81,2.81-2.81-1.24-2.81-2.81Z"/>
        <path class="cls-4" d="M5.62,2.86C5.62,1.29,6.86.05,8.44.05s2.81,1.24,2.81,2.81-1.24,2.81-2.81,2.81-2.81-1.24-2.81-2.81Z"/>
        <path class="cls-4" d="M67.47,47.84c0-1.58,1.24-2.81,2.81-2.81s2.81,1.24,2.81,2.81-1.24,2.81-2.81,2.81-2.81-1.24-2.81-2.81Z"/>
        <path class="cls-1" d="M67.47,53.47c0-1.58,1.24-2.81,2.81-2.81s2.81,1.24,2.81,2.81-1.24,2.81-2.81,2.81-2.81-1.24-2.81-2.81Z"/>
        <path class="cls-3" d="M67.47,59.09c0-1.58,1.24-2.81,2.81-2.81s2.81,1.24,2.81,2.81-1.24,2.81-2.81,2.81-2.81-1.24-2.81-2.81Z"/>
        <path class="cls-3" d="M0,14.09c0-1.58,1.24-2.81,2.81-2.81s2.81,1.24,2.81,2.81-1.24,2.81-2.81,2.81-2.81-1.24-2.81-2.81Z"/>
        <path class="cls-1" d="M0,8.47c0-1.58,1.24-2.81,2.81-2.81s2.81,1.24,2.81,2.81-1.24,2.81-2.81,2.81-2.81-1.24-2.81-2.81Z"/>
        <path class="cls-4" d="M0,2.84C0,1.26,1.24.02,2.81.02s2.81,1.24,2.81,2.81-1.24,2.81-2.81,2.81S0,4.41,0,2.84Z"/>
      </g>
    </g>
  </g>
</svg>